G04*
G04 #@! TF.GenerationSoftware,Altium Limited,Altium Designer,22.10.1 (41)*
G04*
G04 Layer_Physical_Order=3*
G04 Layer_Color=16440176*
%FSLAX25Y25*%
%MOIN*%
G70*
G04*
G04 #@! TF.SameCoordinates,AFA84DA5-00AA-44F6-A921-FAAB14C792BC*
G04*
G04*
G04 #@! TF.FilePolarity,Positive*
G04*
G01*
G75*
%ADD13C,0.01000*%
%ADD63C,0.00700*%
%ADD70C,0.05906*%
%ADD71R,0.05906X0.05906*%
%ADD72C,0.03000*%
%ADD73C,0.05000*%
%ADD74C,0.02500*%
G36*
X304466Y130034D02*
X109535D01*
Y323966D01*
X304466D01*
Y130034D01*
D02*
G37*
%LPC*%
G36*
X289000Y323386D02*
X288278Y323243D01*
X287666Y322834D01*
X287257Y322222D01*
X287114Y321500D01*
X287257Y320778D01*
X287666Y320166D01*
X288278Y319757D01*
X289000Y319614D01*
X289722Y319757D01*
X290334Y320166D01*
X290743Y320778D01*
X290886Y321500D01*
X290743Y322222D01*
X290334Y322834D01*
X289722Y323243D01*
X289000Y323386D01*
D02*
G37*
G36*
X264007Y321974D02*
X263285Y321831D01*
X262673Y321422D01*
X262264Y320810D01*
X262121Y320088D01*
X262264Y319366D01*
X262673Y318754D01*
X263285Y318345D01*
X264007Y318202D01*
X264729Y318345D01*
X265341Y318754D01*
X265750Y319366D01*
X265893Y320088D01*
X265750Y320810D01*
X265341Y321422D01*
X264729Y321831D01*
X264007Y321974D01*
D02*
G37*
G36*
X125500Y322627D02*
X124691Y322520D01*
X123937Y322208D01*
X123289Y321711D01*
X122792Y321063D01*
X122480Y320309D01*
X122373Y319500D01*
X122480Y318691D01*
X122792Y317937D01*
X123289Y317289D01*
X123937Y316792D01*
X124691Y316480D01*
X125500Y316373D01*
X126309Y316480D01*
X127063Y316792D01*
X127711Y317289D01*
X128208Y317937D01*
X128520Y318691D01*
X128627Y319500D01*
X128520Y320309D01*
X128208Y321063D01*
X127711Y321711D01*
X127063Y322208D01*
X126309Y322520D01*
X125500Y322627D01*
D02*
G37*
G36*
X241000Y319083D02*
X240073Y318961D01*
X239208Y318603D01*
X238466Y318034D01*
X237897Y317292D01*
X237539Y316427D01*
X237417Y315500D01*
X237539Y314573D01*
X237880Y313749D01*
X236412Y312282D01*
X236341Y312176D01*
X235771Y312138D01*
X235763Y312142D01*
X235514Y312514D01*
X234819Y312978D01*
X234259Y313090D01*
X234035Y313619D01*
X234103Y313708D01*
X234461Y314573D01*
X234583Y315500D01*
X234461Y316427D01*
X234103Y317292D01*
X233534Y318034D01*
X232792Y318603D01*
X231927Y318961D01*
X231000Y319083D01*
X230073Y318961D01*
X229208Y318603D01*
X228466Y318034D01*
X227897Y317292D01*
X227539Y316427D01*
X227417Y315500D01*
X227539Y314573D01*
X227897Y313708D01*
X228466Y312966D01*
X229208Y312397D01*
X230073Y312039D01*
X231000Y311917D01*
X231582Y311993D01*
X231966Y311540D01*
X231859Y311000D01*
X232022Y310181D01*
X232486Y309486D01*
X233181Y309022D01*
X234000Y308859D01*
X234819Y309022D01*
X235514Y309486D01*
X235629Y309658D01*
X236129Y309506D01*
Y296548D01*
X236129Y296543D01*
X235707Y296099D01*
X235500Y296127D01*
X234691Y296020D01*
X233937Y295708D01*
X233289Y295211D01*
X232792Y294563D01*
X232480Y293809D01*
X232373Y293000D01*
X232480Y292191D01*
X232792Y291437D01*
X233289Y290789D01*
X233937Y290292D01*
X234691Y289980D01*
X235500Y289873D01*
X236309Y289980D01*
X237063Y290292D01*
X237711Y290789D01*
X238208Y291437D01*
X238520Y292191D01*
X238619Y292944D01*
X238926Y293148D01*
X239058Y293213D01*
X239481Y292789D01*
Y280886D01*
X238314Y279719D01*
X238151D01*
X236735Y281135D01*
X236421Y281345D01*
X236050Y281419D01*
X220985D01*
X220615Y281345D01*
X220300Y281135D01*
X220084Y280919D01*
X218778D01*
X218308Y281397D01*
X218708Y281687D01*
X219361Y281557D01*
X220180Y281720D01*
X220875Y282184D01*
X221339Y282879D01*
X221502Y283698D01*
X221339Y284518D01*
X220875Y285212D01*
X220180Y285676D01*
X219361Y285839D01*
X218542Y285676D01*
X217847Y285212D01*
X217811Y285159D01*
X217311D01*
X217275Y285214D01*
X216580Y285678D01*
X215761Y285841D01*
X214942Y285678D01*
X214723Y285532D01*
X214282Y285768D01*
Y295516D01*
X214197Y295945D01*
X213954Y296309D01*
X213954Y296309D01*
X209370Y300893D01*
X209006Y301136D01*
X208577Y301222D01*
X208577Y301221D01*
X206423D01*
X206423Y301222D01*
X205994Y301136D01*
X205630Y300893D01*
X196957Y292220D01*
X196714Y291856D01*
X196628Y291427D01*
X196628Y291427D01*
Y289538D01*
X190245Y283154D01*
X189733Y283349D01*
X189610Y283969D01*
X189146Y284664D01*
X188451Y285128D01*
X187632Y285291D01*
X186812Y285128D01*
X186118Y284664D01*
X185855Y284272D01*
X185384D01*
X185236Y284734D01*
X185243Y284771D01*
X185834Y285166D01*
X186243Y285778D01*
X186386Y286500D01*
X186243Y287222D01*
X185834Y287834D01*
X185222Y288243D01*
X184500Y288386D01*
X183778Y288243D01*
X183166Y287834D01*
X182757Y287222D01*
X182614Y286500D01*
X182757Y285778D01*
X182944Y285499D01*
X182889Y285365D01*
X182636Y285060D01*
X182595Y285065D01*
X181866Y285793D01*
X181502Y286036D01*
X181073Y286122D01*
X181073Y286122D01*
X177976D01*
X177834Y286334D01*
X177222Y286743D01*
X176500Y286886D01*
X175778Y286743D01*
X175166Y286334D01*
X174757Y285722D01*
X174614Y285000D01*
X174757Y284278D01*
X175166Y283666D01*
X175778Y283257D01*
X176500Y283114D01*
X177222Y283257D01*
X177834Y283666D01*
X177976Y283878D01*
X180609D01*
X182130Y282357D01*
X182130Y282357D01*
X182494Y282114D01*
X182923Y282028D01*
X182923Y282029D01*
X185297D01*
X185301Y282021D01*
X185018Y281522D01*
X145900D01*
X145900Y281522D01*
X145471Y281436D01*
X145107Y281193D01*
X145107Y281193D01*
X141098Y277184D01*
X140427Y277461D01*
X139500Y277583D01*
X138573Y277461D01*
X137708Y277103D01*
X136966Y276534D01*
X136397Y275792D01*
X136039Y274927D01*
X135917Y274000D01*
X136039Y273073D01*
X136397Y272208D01*
X136966Y271466D01*
X137708Y270897D01*
X138573Y270539D01*
X139500Y270417D01*
X140427Y270539D01*
X141292Y270897D01*
X142034Y271466D01*
X142603Y272208D01*
X142961Y273073D01*
X143083Y274000D01*
X142961Y274927D01*
X142684Y275598D01*
X146365Y279278D01*
X189077D01*
X189077Y279278D01*
X189506Y279364D01*
X189870Y279607D01*
X198543Y288280D01*
X198543Y288280D01*
X198786Y288644D01*
X198872Y289073D01*
X198872Y289073D01*
Y290962D01*
X204992Y297083D01*
X205471Y296938D01*
X205522Y296681D01*
X205986Y295986D01*
X206379Y295724D01*
Y288527D01*
X206378Y288527D01*
X206464Y288098D01*
X206707Y287734D01*
X210131Y284310D01*
Y282269D01*
X210131Y282268D01*
X210216Y281839D01*
X210460Y281475D01*
X212730Y279205D01*
Y278471D01*
X212230Y278204D01*
X211819Y278478D01*
X211000Y278641D01*
X210181Y278478D01*
X209486Y278014D01*
X209470Y277990D01*
X208999Y278185D01*
X209141Y278900D01*
X208978Y279719D01*
X208514Y280414D01*
X207819Y280878D01*
X207000Y281041D01*
X206181Y280878D01*
X205486Y280414D01*
X205022Y279719D01*
X204859Y278900D01*
X205022Y278081D01*
X205486Y277386D01*
X206181Y276922D01*
X207000Y276759D01*
X207819Y276922D01*
X208514Y277386D01*
X208530Y277410D01*
X209001Y277215D01*
X208859Y276500D01*
X209022Y275681D01*
X209486Y274986D01*
X210181Y274522D01*
X211000Y274359D01*
X211819Y274522D01*
X212230Y274796D01*
X212309Y274796D01*
X212777Y274560D01*
X212816Y274366D01*
X213059Y274002D01*
X214888Y272173D01*
X214888Y272173D01*
X215252Y271930D01*
X215681Y271844D01*
X224838D01*
X234355Y262327D01*
X234190Y261785D01*
X233978Y261743D01*
X233366Y261334D01*
X232957Y260722D01*
X232814Y260000D01*
X232957Y259278D01*
X233366Y258666D01*
X233978Y258257D01*
X234700Y258114D01*
X235422Y258257D01*
X236034Y258666D01*
X236443Y259278D01*
X236485Y259490D01*
X237027Y259655D01*
X240476Y256207D01*
X240476Y256207D01*
X240839Y255964D01*
X241268Y255878D01*
X241269Y255878D01*
X257609D01*
X257792Y255437D01*
X258289Y254789D01*
X258937Y254292D01*
X259691Y253980D01*
X260500Y253873D01*
X261309Y253980D01*
X262063Y254292D01*
X262711Y254789D01*
X263208Y255437D01*
X263391Y255878D01*
X267205D01*
X273610Y249474D01*
Y242666D01*
X273390Y242336D01*
X273305Y241907D01*
X273305Y241907D01*
Y240438D01*
X273092Y240297D01*
X272683Y239685D01*
X272540Y238963D01*
X272683Y238241D01*
X273092Y237629D01*
X273704Y237220D01*
X274426Y237076D01*
X275148Y237220D01*
X275760Y237629D01*
X276169Y238241D01*
X276312Y238963D01*
X276169Y239685D01*
X275760Y240297D01*
X275548Y240438D01*
Y241454D01*
X275768Y241783D01*
X275853Y242213D01*
X275853Y242213D01*
Y249938D01*
X275768Y250367D01*
X275525Y250731D01*
X275525Y250731D01*
X268463Y257793D01*
X268099Y258036D01*
X267670Y258122D01*
X267670Y258121D01*
X263391D01*
X263208Y258563D01*
X262711Y259211D01*
X262063Y259708D01*
X261309Y260020D01*
X260500Y260127D01*
X259691Y260020D01*
X258937Y259708D01*
X258289Y259211D01*
X257792Y258563D01*
X257609Y258121D01*
X241733D01*
X236886Y262969D01*
X237128Y263434D01*
X237927Y263539D01*
X238792Y263897D01*
X239534Y264466D01*
X240103Y265208D01*
X240461Y266073D01*
X240583Y267000D01*
X240461Y267927D01*
X240103Y268792D01*
X239534Y269534D01*
X239012Y269935D01*
X238918Y270548D01*
X241117Y272747D01*
X241327Y273062D01*
X241401Y273432D01*
Y277055D01*
X241327Y277425D01*
X241117Y277740D01*
X240096Y278761D01*
X241135Y279800D01*
X241345Y280115D01*
X241419Y280485D01*
Y293190D01*
X241345Y293561D01*
X241135Y293875D01*
X238066Y296944D01*
Y302736D01*
X238566Y302890D01*
X239208Y302397D01*
X240073Y302039D01*
X241000Y301917D01*
X241927Y302039D01*
X242792Y302397D01*
X243534Y302966D01*
X244103Y303708D01*
X244461Y304573D01*
X244583Y305500D01*
X244461Y306427D01*
X244103Y307292D01*
X243534Y308034D01*
X242792Y308603D01*
X241927Y308961D01*
X241000Y309083D01*
X240073Y308961D01*
X239208Y308603D01*
X238566Y308110D01*
X238066Y308264D01*
Y311196D01*
X239249Y312380D01*
X240073Y312039D01*
X241000Y311917D01*
X241927Y312039D01*
X242792Y312397D01*
X243534Y312966D01*
X244103Y313708D01*
X244461Y314573D01*
X244583Y315500D01*
X244461Y316427D01*
X244103Y317292D01*
X243534Y318034D01*
X242792Y318603D01*
X241927Y318961D01*
X241000Y319083D01*
D02*
G37*
G36*
X251000D02*
X250073Y318961D01*
X249208Y318603D01*
X248466Y318034D01*
X247897Y317292D01*
X247539Y316427D01*
X247417Y315500D01*
X247539Y314573D01*
X247897Y313708D01*
X248466Y312966D01*
X249208Y312397D01*
X250073Y312039D01*
X251000Y311917D01*
X251927Y312039D01*
X252792Y312397D01*
X253534Y312966D01*
X254103Y313708D01*
X254461Y314573D01*
X254583Y315500D01*
X254461Y316427D01*
X254103Y317292D01*
X253534Y318034D01*
X252792Y318603D01*
X251927Y318961D01*
X251000Y319083D01*
D02*
G37*
G36*
X221000D02*
X220073Y318961D01*
X219208Y318603D01*
X218466Y318034D01*
X217897Y317292D01*
X217539Y316427D01*
X217417Y315500D01*
X217539Y314573D01*
X217897Y313708D01*
X218466Y312966D01*
X219208Y312397D01*
X220073Y312039D01*
X221000Y311917D01*
X221927Y312039D01*
X222792Y312397D01*
X223534Y312966D01*
X224103Y313708D01*
X224461Y314573D01*
X224583Y315500D01*
X224461Y316427D01*
X224103Y317292D01*
X223534Y318034D01*
X222792Y318603D01*
X221927Y318961D01*
X221000Y319083D01*
D02*
G37*
G36*
X211000D02*
X210073Y318961D01*
X209208Y318603D01*
X208466Y318034D01*
X207897Y317292D01*
X207539Y316427D01*
X207417Y315500D01*
X207539Y314573D01*
X207897Y313708D01*
X208466Y312966D01*
X209208Y312397D01*
X210073Y312039D01*
X211000Y311917D01*
X211927Y312039D01*
X212792Y312397D01*
X213534Y312966D01*
X214103Y313708D01*
X214461Y314573D01*
X214583Y315500D01*
X214461Y316427D01*
X214103Y317292D01*
X213534Y318034D01*
X212792Y318603D01*
X211927Y318961D01*
X211000Y319083D01*
D02*
G37*
G36*
X201000D02*
X200073Y318961D01*
X199208Y318603D01*
X198466Y318034D01*
X197897Y317292D01*
X197539Y316427D01*
X197417Y315500D01*
X197539Y314573D01*
X197897Y313708D01*
X198466Y312966D01*
X199208Y312397D01*
X200073Y312039D01*
X201000Y311917D01*
X201927Y312039D01*
X202792Y312397D01*
X203534Y312966D01*
X204103Y313708D01*
X204461Y314573D01*
X204583Y315500D01*
X204461Y316427D01*
X204103Y317292D01*
X203534Y318034D01*
X202792Y318603D01*
X201927Y318961D01*
X201000Y319083D01*
D02*
G37*
G36*
X191000D02*
X190073Y318961D01*
X189208Y318603D01*
X188466Y318034D01*
X187897Y317292D01*
X187539Y316427D01*
X187417Y315500D01*
X187539Y314573D01*
X187897Y313708D01*
X188466Y312966D01*
X189208Y312397D01*
X190073Y312039D01*
X191000Y311917D01*
X191927Y312039D01*
X192792Y312397D01*
X193534Y312966D01*
X194103Y313708D01*
X194461Y314573D01*
X194583Y315500D01*
X194461Y316427D01*
X194103Y317292D01*
X193534Y318034D01*
X192792Y318603D01*
X191927Y318961D01*
X191000Y319083D01*
D02*
G37*
G36*
X181000D02*
X180073Y318961D01*
X179208Y318603D01*
X178466Y318034D01*
X177897Y317292D01*
X177539Y316427D01*
X177417Y315500D01*
X177539Y314573D01*
X177897Y313708D01*
X178466Y312966D01*
X179208Y312397D01*
X180073Y312039D01*
X181000Y311917D01*
X181927Y312039D01*
X182792Y312397D01*
X183534Y312966D01*
X184103Y313708D01*
X184461Y314573D01*
X184583Y315500D01*
X184461Y316427D01*
X184103Y317292D01*
X183534Y318034D01*
X182792Y318603D01*
X181927Y318961D01*
X181000Y319083D01*
D02*
G37*
G36*
X171000D02*
X170073Y318961D01*
X169208Y318603D01*
X168466Y318034D01*
X167897Y317292D01*
X167539Y316427D01*
X167417Y315500D01*
X167539Y314573D01*
X167897Y313708D01*
X168466Y312966D01*
X169208Y312397D01*
X170073Y312039D01*
X171000Y311917D01*
X171927Y312039D01*
X172792Y312397D01*
X173534Y312966D01*
X174103Y313708D01*
X174461Y314573D01*
X174583Y315500D01*
X174461Y316427D01*
X174103Y317292D01*
X173534Y318034D01*
X172792Y318603D01*
X171927Y318961D01*
X171000Y319083D01*
D02*
G37*
G36*
X161000D02*
X160073Y318961D01*
X159208Y318603D01*
X158466Y318034D01*
X157897Y317292D01*
X157539Y316427D01*
X157417Y315500D01*
X157539Y314573D01*
X157897Y313708D01*
X158466Y312966D01*
X159208Y312397D01*
X160073Y312039D01*
X161000Y311917D01*
X161927Y312039D01*
X162792Y312397D01*
X163534Y312966D01*
X164103Y313708D01*
X164461Y314573D01*
X164583Y315500D01*
X164461Y316427D01*
X164103Y317292D01*
X163534Y318034D01*
X162792Y318603D01*
X161927Y318961D01*
X161000Y319083D01*
D02*
G37*
G36*
X149500Y313464D02*
Y310500D01*
X152464D01*
X152410Y310914D01*
X152057Y311765D01*
X151496Y312496D01*
X150765Y313057D01*
X149914Y313410D01*
X149500Y313464D01*
D02*
G37*
G36*
X148500D02*
X148086Y313410D01*
X147235Y313057D01*
X146504Y312496D01*
X145943Y311765D01*
X145590Y310914D01*
X145536Y310500D01*
X148500D01*
Y313464D01*
D02*
G37*
G36*
X152464Y309500D02*
X149500D01*
Y306536D01*
X149914Y306590D01*
X150765Y306943D01*
X151496Y307504D01*
X152057Y308235D01*
X152410Y309086D01*
X152464Y309500D01*
D02*
G37*
G36*
X148500D02*
X145536D01*
X145590Y309086D01*
X145943Y308235D01*
X146504Y307504D01*
X147235Y306943D01*
X148086Y306590D01*
X148500Y306536D01*
Y309500D01*
D02*
G37*
G36*
X164953Y309453D02*
X161500D01*
Y306000D01*
X164953D01*
Y309453D01*
D02*
G37*
G36*
X160500D02*
X157047D01*
Y306000D01*
X160500D01*
Y309453D01*
D02*
G37*
G36*
X251000Y309083D02*
X250073Y308961D01*
X249208Y308603D01*
X248466Y308034D01*
X247897Y307292D01*
X247539Y306427D01*
X247417Y305500D01*
X247539Y304573D01*
X247897Y303708D01*
X248466Y302966D01*
X249208Y302397D01*
X250073Y302039D01*
X251000Y301917D01*
X251927Y302039D01*
X252792Y302397D01*
X253534Y302966D01*
X254103Y303708D01*
X254461Y304573D01*
X254583Y305500D01*
X254461Y306427D01*
X254103Y307292D01*
X253534Y308034D01*
X252792Y308603D01*
X251927Y308961D01*
X251000Y309083D01*
D02*
G37*
G36*
X231000D02*
X230073Y308961D01*
X229208Y308603D01*
X228466Y308034D01*
X227897Y307292D01*
X227539Y306427D01*
X227417Y305500D01*
X227539Y304573D01*
X227897Y303708D01*
X228466Y302966D01*
X229208Y302397D01*
X230073Y302039D01*
X231000Y301917D01*
X231927Y302039D01*
X232792Y302397D01*
X233534Y302966D01*
X234103Y303708D01*
X234461Y304573D01*
X234583Y305500D01*
X234461Y306427D01*
X234103Y307292D01*
X233534Y308034D01*
X232792Y308603D01*
X231927Y308961D01*
X231000Y309083D01*
D02*
G37*
G36*
X221000D02*
X220073Y308961D01*
X219208Y308603D01*
X218466Y308034D01*
X217897Y307292D01*
X217539Y306427D01*
X217417Y305500D01*
X217539Y304573D01*
X217897Y303708D01*
X218466Y302966D01*
X219208Y302397D01*
X220073Y302039D01*
X221000Y301917D01*
X221927Y302039D01*
X222792Y302397D01*
X223534Y302966D01*
X224103Y303708D01*
X224461Y304573D01*
X224583Y305500D01*
X224461Y306427D01*
X224103Y307292D01*
X223534Y308034D01*
X222792Y308603D01*
X221927Y308961D01*
X221000Y309083D01*
D02*
G37*
G36*
X211000D02*
X210073Y308961D01*
X209208Y308603D01*
X208466Y308034D01*
X207897Y307292D01*
X207539Y306427D01*
X207417Y305500D01*
X207539Y304573D01*
X207897Y303708D01*
X208466Y302966D01*
X209208Y302397D01*
X210073Y302039D01*
X211000Y301917D01*
X211927Y302039D01*
X212792Y302397D01*
X213534Y302966D01*
X214103Y303708D01*
X214461Y304573D01*
X214583Y305500D01*
X214461Y306427D01*
X214103Y307292D01*
X213534Y308034D01*
X212792Y308603D01*
X211927Y308961D01*
X211000Y309083D01*
D02*
G37*
G36*
X201000D02*
X200073Y308961D01*
X199208Y308603D01*
X198466Y308034D01*
X197897Y307292D01*
X197539Y306427D01*
X197417Y305500D01*
X197539Y304573D01*
X197897Y303708D01*
X198466Y302966D01*
X199208Y302397D01*
X200073Y302039D01*
X201000Y301917D01*
X201927Y302039D01*
X202792Y302397D01*
X203534Y302966D01*
X204103Y303708D01*
X204461Y304573D01*
X204583Y305500D01*
X204461Y306427D01*
X204103Y307292D01*
X203534Y308034D01*
X202792Y308603D01*
X201927Y308961D01*
X201000Y309083D01*
D02*
G37*
G36*
X191000D02*
X190073Y308961D01*
X189208Y308603D01*
X188466Y308034D01*
X187897Y307292D01*
X187539Y306427D01*
X187417Y305500D01*
X187539Y304573D01*
X187897Y303708D01*
X188466Y302966D01*
X189208Y302397D01*
X190073Y302039D01*
X191000Y301917D01*
X191927Y302039D01*
X192792Y302397D01*
X193534Y302966D01*
X194103Y303708D01*
X194461Y304573D01*
X194583Y305500D01*
X194461Y306427D01*
X194103Y307292D01*
X193534Y308034D01*
X192792Y308603D01*
X191927Y308961D01*
X191000Y309083D01*
D02*
G37*
G36*
X181000D02*
X180073Y308961D01*
X179208Y308603D01*
X178466Y308034D01*
X177897Y307292D01*
X177539Y306427D01*
X177417Y305500D01*
X177539Y304573D01*
X177897Y303708D01*
X178466Y302966D01*
X179208Y302397D01*
X180073Y302039D01*
X181000Y301917D01*
X181927Y302039D01*
X182792Y302397D01*
X183534Y302966D01*
X184103Y303708D01*
X184461Y304573D01*
X184583Y305500D01*
X184461Y306427D01*
X184103Y307292D01*
X183534Y308034D01*
X182792Y308603D01*
X181927Y308961D01*
X181000Y309083D01*
D02*
G37*
G36*
X171000D02*
X170073Y308961D01*
X169208Y308603D01*
X168466Y308034D01*
X167897Y307292D01*
X167539Y306427D01*
X167417Y305500D01*
X167539Y304573D01*
X167897Y303708D01*
X168466Y302966D01*
X169208Y302397D01*
X170073Y302039D01*
X171000Y301917D01*
X171927Y302039D01*
X172792Y302397D01*
X173534Y302966D01*
X174103Y303708D01*
X174461Y304573D01*
X174583Y305500D01*
X174461Y306427D01*
X174103Y307292D01*
X173534Y308034D01*
X172792Y308603D01*
X171927Y308961D01*
X171000Y309083D01*
D02*
G37*
G36*
X164953Y305000D02*
X161500D01*
Y301547D01*
X164953D01*
Y305000D01*
D02*
G37*
G36*
X160500D02*
X157047D01*
Y301547D01*
X160500D01*
Y305000D01*
D02*
G37*
G36*
X122053Y305553D02*
X114947D01*
Y298447D01*
X122053D01*
Y305553D01*
D02*
G37*
G36*
X288000Y301886D02*
X287278Y301743D01*
X286666Y301334D01*
X286257Y300722D01*
X286114Y300000D01*
X286257Y299278D01*
X286666Y298666D01*
X287278Y298257D01*
X288000Y298114D01*
X288722Y298257D01*
X289334Y298666D01*
X289743Y299278D01*
X289886Y300000D01*
X289743Y300722D01*
X289334Y301334D01*
X288722Y301743D01*
X288000Y301886D01*
D02*
G37*
G36*
X263000Y299386D02*
X262278Y299243D01*
X261666Y298834D01*
X261257Y298222D01*
X261114Y297500D01*
X261257Y296778D01*
X261666Y296166D01*
X262278Y295757D01*
X263000Y295614D01*
X263722Y295757D01*
X264334Y296166D01*
X264743Y296778D01*
X264886Y297500D01*
X264743Y298222D01*
X264334Y298834D01*
X263722Y299243D01*
X263000Y299386D01*
D02*
G37*
G36*
X197000Y299641D02*
X196181Y299478D01*
X195486Y299014D01*
X195022Y298319D01*
X194859Y297500D01*
X195022Y296681D01*
X195486Y295986D01*
X196181Y295522D01*
X197000Y295359D01*
X197819Y295522D01*
X198514Y295986D01*
X198978Y296681D01*
X199141Y297500D01*
X198978Y298319D01*
X198514Y299014D01*
X197819Y299478D01*
X197000Y299641D01*
D02*
G37*
G36*
X228093Y297057D02*
Y294092D01*
X231057D01*
X231002Y294506D01*
X230650Y295358D01*
X230089Y296089D01*
X229358Y296650D01*
X228506Y297002D01*
X228093Y297057D01*
D02*
G37*
G36*
X227093D02*
X226679Y297002D01*
X225827Y296650D01*
X225096Y296089D01*
X224535Y295358D01*
X224183Y294506D01*
X224128Y294092D01*
X227093D01*
Y297057D01*
D02*
G37*
G36*
X151500Y299583D02*
X150573Y299461D01*
X149708Y299103D01*
X148966Y298534D01*
X148397Y297792D01*
X148039Y296927D01*
X147917Y296000D01*
X148039Y295073D01*
X148397Y294208D01*
X148966Y293466D01*
X149708Y292897D01*
X150573Y292539D01*
X151500Y292417D01*
X152427Y292539D01*
X153292Y292897D01*
X154034Y293466D01*
X154603Y294208D01*
X154961Y295073D01*
X155083Y296000D01*
X154961Y296927D01*
X154603Y297792D01*
X154034Y298534D01*
X153292Y299103D01*
X152427Y299461D01*
X151500Y299583D01*
D02*
G37*
G36*
X231057Y293092D02*
X228093D01*
Y290128D01*
X228506Y290183D01*
X229358Y290535D01*
X230089Y291096D01*
X230650Y291827D01*
X231002Y292679D01*
X231057Y293092D01*
D02*
G37*
G36*
X227093D02*
X224128D01*
X224183Y292679D01*
X224535Y291827D01*
X225096Y291096D01*
X225827Y290535D01*
X226679Y290183D01*
X227093Y290128D01*
Y293092D01*
D02*
G37*
G36*
X148500Y291950D02*
Y290000D01*
X150450D01*
X150355Y290476D01*
X149802Y291302D01*
X148976Y291855D01*
X148500Y291950D01*
D02*
G37*
G36*
X147500D02*
X147025Y291855D01*
X146198Y291302D01*
X145645Y290476D01*
X145551Y290000D01*
X147500D01*
Y291950D01*
D02*
G37*
G36*
X189500Y290950D02*
Y289000D01*
X191449D01*
X191355Y289475D01*
X190802Y290302D01*
X189976Y290855D01*
X189500Y290950D01*
D02*
G37*
G36*
X188500D02*
X188024Y290855D01*
X187198Y290302D01*
X186645Y289475D01*
X186550Y289000D01*
X188500D01*
Y290950D01*
D02*
G37*
G36*
X293500Y292386D02*
X292778Y292243D01*
X292166Y291834D01*
X291757Y291222D01*
X291614Y290500D01*
X291757Y289778D01*
X292166Y289166D01*
X292778Y288757D01*
X293500Y288614D01*
X294222Y288757D01*
X294834Y289166D01*
X295243Y289778D01*
X295386Y290500D01*
X295243Y291222D01*
X294834Y291834D01*
X294222Y292243D01*
X293500Y292386D01*
D02*
G37*
G36*
X118500Y295583D02*
X117573Y295461D01*
X116708Y295103D01*
X115966Y294534D01*
X115397Y293792D01*
X115039Y292927D01*
X114917Y292000D01*
X115039Y291073D01*
X115397Y290208D01*
X115966Y289466D01*
X116708Y288897D01*
X117573Y288539D01*
X118500Y288417D01*
X119427Y288539D01*
X120292Y288897D01*
X121034Y289466D01*
X121603Y290208D01*
X121961Y291073D01*
X122083Y292000D01*
X121961Y292927D01*
X121603Y293792D01*
X121034Y294534D01*
X120292Y295103D01*
X119427Y295461D01*
X118500Y295583D01*
D02*
G37*
G36*
X150450Y289000D02*
X148500D01*
Y287051D01*
X148976Y287145D01*
X149802Y287698D01*
X150355Y288525D01*
X150450Y289000D01*
D02*
G37*
G36*
X147500D02*
X145551D01*
X145645Y288525D01*
X146198Y287698D01*
X147025Y287145D01*
X147500Y287051D01*
Y289000D01*
D02*
G37*
G36*
X191449Y288000D02*
X189500D01*
Y286051D01*
X189976Y286145D01*
X190802Y286698D01*
X191355Y287525D01*
X191449Y288000D01*
D02*
G37*
G36*
X188500D02*
X186550D01*
X186645Y287525D01*
X187198Y286698D01*
X188024Y286145D01*
X188500Y286051D01*
Y288000D01*
D02*
G37*
G36*
X252053Y292053D02*
X244947D01*
Y284947D01*
X252053D01*
Y292053D01*
D02*
G37*
G36*
X258500Y292083D02*
X257573Y291961D01*
X256708Y291603D01*
X255966Y291034D01*
X255397Y290292D01*
X255039Y289427D01*
X254917Y288500D01*
X255039Y287573D01*
X255397Y286708D01*
X255966Y285966D01*
X256708Y285397D01*
X257573Y285039D01*
X258500Y284917D01*
X259427Y285039D01*
X260292Y285397D01*
X261034Y285966D01*
X261603Y286708D01*
X261961Y287573D01*
X262083Y288500D01*
X261961Y289427D01*
X261603Y290292D01*
X261034Y291034D01*
X260292Y291603D01*
X259427Y291961D01*
X258500Y292083D01*
D02*
G37*
G36*
X163000Y291583D02*
X162073Y291461D01*
X161208Y291103D01*
X160466Y290534D01*
X159897Y289792D01*
X159539Y288927D01*
X159417Y288000D01*
X159539Y287073D01*
X159897Y286208D01*
X160466Y285466D01*
X161208Y284897D01*
X162073Y284539D01*
X163000Y284417D01*
X163927Y284539D01*
X164792Y284897D01*
X165534Y285466D01*
X166103Y286208D01*
X166461Y287073D01*
X166583Y288000D01*
X166461Y288927D01*
X166103Y289792D01*
X165534Y290534D01*
X164792Y291103D01*
X163927Y291461D01*
X163000Y291583D01*
D02*
G37*
G36*
X172000Y286641D02*
X171181Y286478D01*
X170486Y286014D01*
X170022Y285319D01*
X169859Y284500D01*
X170022Y283681D01*
X170486Y282986D01*
X171181Y282522D01*
X172000Y282359D01*
X172819Y282522D01*
X173514Y282986D01*
X173978Y283681D01*
X174141Y284500D01*
X173978Y285319D01*
X173514Y286014D01*
X172819Y286478D01*
X172000Y286641D01*
D02*
G37*
G36*
X206193Y286036D02*
X205373Y285873D01*
X204679Y285409D01*
X204215Y284714D01*
X204051Y283895D01*
X204215Y283076D01*
X204679Y282381D01*
X205373Y281917D01*
X206193Y281754D01*
X207012Y281917D01*
X207707Y282381D01*
X208171Y283076D01*
X208334Y283895D01*
X208171Y284714D01*
X207707Y285409D01*
X207012Y285873D01*
X206193Y286036D01*
D02*
G37*
G36*
X139000Y283141D02*
X138181Y282978D01*
X137486Y282514D01*
X137022Y281819D01*
X136859Y281000D01*
X137022Y280181D01*
X137486Y279486D01*
X138181Y279022D01*
X139000Y278859D01*
X139819Y279022D01*
X140514Y279486D01*
X140978Y280181D01*
X141141Y281000D01*
X140978Y281819D01*
X140514Y282514D01*
X139819Y282978D01*
X139000Y283141D01*
D02*
G37*
G36*
X258500Y282083D02*
X257573Y281961D01*
X256708Y281603D01*
X255966Y281034D01*
X255397Y280292D01*
X255039Y279427D01*
X254917Y278500D01*
X255039Y277573D01*
X255397Y276708D01*
X255966Y275966D01*
X256708Y275397D01*
X257573Y275039D01*
X258500Y274917D01*
X259427Y275039D01*
X260292Y275397D01*
X261034Y275966D01*
X261603Y276708D01*
X261961Y277573D01*
X262083Y278500D01*
X261961Y279427D01*
X261603Y280292D01*
X261034Y281034D01*
X260292Y281603D01*
X259427Y281961D01*
X258500Y282083D01*
D02*
G37*
G36*
X248500D02*
X247573Y281961D01*
X246708Y281603D01*
X245966Y281034D01*
X245397Y280292D01*
X245039Y279427D01*
X244917Y278500D01*
X245039Y277573D01*
X245397Y276708D01*
X245966Y275966D01*
X246708Y275397D01*
X247573Y275039D01*
X248500Y274917D01*
X249427Y275039D01*
X250292Y275397D01*
X251034Y275966D01*
X251603Y276708D01*
X251961Y277573D01*
X252083Y278500D01*
X251961Y279427D01*
X251603Y280292D01*
X251034Y281034D01*
X250292Y281603D01*
X249427Y281961D01*
X248500Y282083D01*
D02*
G37*
G36*
X166632Y277536D02*
X165910Y277393D01*
X165298Y276984D01*
X164889Y276372D01*
X164745Y275650D01*
X164889Y274928D01*
X165298Y274316D01*
X165910Y273907D01*
X166632Y273764D01*
X167353Y273907D01*
X167965Y274316D01*
X168374Y274928D01*
X168518Y275650D01*
X168374Y276372D01*
X167965Y276984D01*
X167353Y277393D01*
X166632Y277536D01*
D02*
G37*
G36*
X128500Y280583D02*
X127573Y280461D01*
X126708Y280103D01*
X125966Y279534D01*
X125397Y278792D01*
X125039Y277927D01*
X124917Y277000D01*
X125039Y276073D01*
X125397Y275208D01*
X125966Y274466D01*
X126708Y273897D01*
X127573Y273539D01*
X128500Y273417D01*
X129427Y273539D01*
X130292Y273897D01*
X131034Y274466D01*
X131603Y275208D01*
X131961Y276073D01*
X132083Y277000D01*
X131961Y277927D01*
X131603Y278792D01*
X131034Y279534D01*
X130292Y280103D01*
X129427Y280461D01*
X128500Y280583D01*
D02*
G37*
G36*
X202000Y273950D02*
X201524Y273855D01*
X200698Y273302D01*
X200145Y272476D01*
X200050Y272000D01*
X202000D01*
Y273950D01*
D02*
G37*
G36*
X205500Y276141D02*
X204681Y275978D01*
X203986Y275514D01*
X203522Y274819D01*
X203433Y274373D01*
X203000Y274050D01*
Y271500D01*
X202500D01*
Y271000D01*
X200050D01*
X200145Y270525D01*
X200186Y270462D01*
X199951Y270022D01*
X195659D01*
X195659Y270022D01*
X195230Y269936D01*
X194866Y269693D01*
X194866Y269693D01*
X193295Y268122D01*
X185776D01*
X185514Y268514D01*
X184819Y268978D01*
X184000Y269141D01*
X183181Y268978D01*
X182486Y268514D01*
X182022Y267819D01*
X181859Y267000D01*
X182022Y266181D01*
X182486Y265486D01*
X183181Y265022D01*
X184000Y264859D01*
X184819Y265022D01*
X185514Y265486D01*
X185776Y265879D01*
X193759D01*
X193759Y265878D01*
X193945Y265915D01*
X194192Y265455D01*
X184607Y255870D01*
X184499Y255708D01*
X184309Y255659D01*
X183938Y255624D01*
X183895Y255636D01*
X183292Y256039D01*
X182473Y256202D01*
X181654Y256039D01*
X180959Y255574D01*
X180495Y254880D01*
X180332Y254060D01*
X180438Y253525D01*
X177984Y251070D01*
X177514Y251014D01*
X176819Y251478D01*
X176000Y251641D01*
X175181Y251478D01*
X174486Y251014D01*
X174022Y250319D01*
X173859Y249500D01*
X174022Y248681D01*
X174486Y247986D01*
X175181Y247522D01*
X176000Y247359D01*
X176819Y247522D01*
X177514Y247986D01*
X177978Y248681D01*
X178372Y248750D01*
X178801Y248836D01*
X179165Y249079D01*
X179487Y249401D01*
X179916Y249208D01*
X179929Y248708D01*
X172116Y240896D01*
X171653Y240988D01*
X170834Y240825D01*
X170139Y240361D01*
X169675Y239666D01*
X169512Y238847D01*
X169675Y238027D01*
X170139Y237333D01*
X170834Y236868D01*
X171653Y236705D01*
X172473Y236868D01*
X173167Y237333D01*
X173632Y238027D01*
X173794Y238847D01*
X173703Y239310D01*
X181888Y247495D01*
X181888Y247495D01*
X182131Y247859D01*
X182143Y247922D01*
X182674Y248028D01*
X182895Y247697D01*
X183640Y247199D01*
X184018Y247124D01*
Y249319D01*
X184518D01*
Y249819D01*
X186712D01*
X186637Y250197D01*
X186140Y250941D01*
X185651Y251268D01*
X185554Y251878D01*
X186193Y252517D01*
X186193Y252517D01*
X186436Y252881D01*
X186522Y253310D01*
Y254612D01*
X197788Y265879D01*
X200748D01*
X200859Y265768D01*
X200859Y265768D01*
X201222Y265525D01*
X201652Y265440D01*
X201652Y265440D01*
X202937D01*
X203199Y265047D01*
X203894Y264583D01*
X204713Y264420D01*
X205533Y264583D01*
X206227Y265047D01*
X206691Y265742D01*
X206787Y266223D01*
X206836Y266288D01*
X207320Y266575D01*
X207328Y266575D01*
X207518Y266537D01*
X207518Y266537D01*
X211452D01*
X211486Y266486D01*
X212181Y266022D01*
X213000Y265859D01*
X213463Y265951D01*
X221978Y257435D01*
Y247068D01*
X221537Y246832D01*
X221319Y246978D01*
X220500Y247141D01*
X219681Y246978D01*
X218986Y246514D01*
X218522Y245819D01*
X218359Y245000D01*
X218522Y244181D01*
X218986Y243486D01*
X219681Y243022D01*
X220500Y242859D01*
X220679Y242895D01*
X221179Y242484D01*
Y240740D01*
X221000Y240583D01*
X220073Y240461D01*
X219208Y240103D01*
X218466Y239534D01*
X217897Y238792D01*
X217539Y237927D01*
X217417Y237000D01*
X217539Y236073D01*
X217897Y235208D01*
X218466Y234466D01*
X219208Y233897D01*
X220073Y233539D01*
X221000Y233417D01*
X221927Y233539D01*
X222598Y233816D01*
X239378Y217035D01*
Y208276D01*
X238986Y208014D01*
X238522Y207319D01*
X238359Y206500D01*
X238522Y205681D01*
X238986Y204986D01*
X239681Y204522D01*
X240500Y204359D01*
X241319Y204522D01*
X242014Y204986D01*
X242478Y205681D01*
X242641Y206500D01*
X242478Y207319D01*
X242014Y208014D01*
X241621Y208276D01*
Y217500D01*
X241536Y217929D01*
X241293Y218293D01*
X241293Y218293D01*
X224184Y235402D01*
X224461Y236073D01*
X224583Y237000D01*
X224461Y237927D01*
X224103Y238792D01*
X223534Y239534D01*
X223422Y239620D01*
Y242488D01*
X223893Y242959D01*
X223893Y242959D01*
X224136Y243323D01*
X224221Y243752D01*
Y257900D01*
X224222Y257900D01*
X224136Y258329D01*
X223893Y258693D01*
X223893Y258693D01*
X218672Y263914D01*
X218918Y264375D01*
X219000Y264359D01*
X219819Y264522D01*
X220514Y264986D01*
X220978Y265681D01*
X221141Y266500D01*
X220978Y267319D01*
X220514Y268014D01*
X219819Y268478D01*
X219000Y268641D01*
X218181Y268478D01*
X217486Y268014D01*
X217022Y267319D01*
X216859Y266500D01*
X216875Y266418D01*
X216414Y266172D01*
X215049Y267537D01*
X215141Y268000D01*
X214978Y268819D01*
X214514Y269514D01*
X213819Y269978D01*
X213000Y270141D01*
X212181Y269978D01*
X211486Y269514D01*
X211022Y268819D01*
X211014Y268780D01*
X207983D01*
X206809Y269954D01*
X206445Y270198D01*
X206016Y270283D01*
X206015Y270283D01*
X205249D01*
X204906Y270783D01*
X205049Y271500D01*
X205044Y271526D01*
X205397Y271879D01*
X205500Y271859D01*
X206319Y272022D01*
X207014Y272486D01*
X207478Y273181D01*
X207641Y274000D01*
X207478Y274819D01*
X207014Y275514D01*
X206319Y275978D01*
X205500Y276141D01*
D02*
G37*
G36*
X186000Y275141D02*
X185181Y274978D01*
X184486Y274514D01*
X184022Y273819D01*
X183859Y273000D01*
X184022Y272181D01*
X184486Y271486D01*
X185181Y271022D01*
X186000Y270859D01*
X186819Y271022D01*
X187514Y271486D01*
X187978Y272181D01*
X188141Y273000D01*
X187978Y273819D01*
X187514Y274514D01*
X186819Y274978D01*
X186000Y275141D01*
D02*
G37*
G36*
X249000Y272421D02*
Y269000D01*
X252421D01*
X252351Y269532D01*
X251953Y270493D01*
X251319Y271319D01*
X250493Y271953D01*
X249532Y272351D01*
X249000Y272421D01*
D02*
G37*
G36*
X248000D02*
X247468Y272351D01*
X246507Y271953D01*
X245681Y271319D01*
X245047Y270493D01*
X244649Y269532D01*
X244579Y269000D01*
X248000D01*
Y272421D01*
D02*
G37*
G36*
X160000Y274083D02*
X159073Y273961D01*
X158208Y273603D01*
X157466Y273034D01*
X156897Y272292D01*
X156539Y271427D01*
X156417Y270500D01*
X156539Y269573D01*
X156897Y268708D01*
X157466Y267966D01*
X158208Y267397D01*
X159073Y267039D01*
X160000Y266917D01*
X160927Y267039D01*
X161792Y267397D01*
X162534Y267966D01*
X163103Y268708D01*
X163461Y269573D01*
X163583Y270500D01*
X163461Y271427D01*
X163103Y272292D01*
X162534Y273034D01*
X161792Y273603D01*
X160927Y273961D01*
X160000Y274083D01*
D02*
G37*
G36*
X293000Y269886D02*
X292278Y269743D01*
X291666Y269334D01*
X291257Y268722D01*
X291114Y268000D01*
X291257Y267278D01*
X291666Y266666D01*
X292278Y266257D01*
X293000Y266114D01*
X293722Y266257D01*
X294334Y266666D01*
X294743Y267278D01*
X294886Y268000D01*
X294743Y268722D01*
X294334Y269334D01*
X293722Y269743D01*
X293000Y269886D01*
D02*
G37*
G36*
X258500Y272083D02*
X257573Y271961D01*
X256708Y271603D01*
X255966Y271034D01*
X255397Y270292D01*
X255039Y269427D01*
X254917Y268500D01*
X255039Y267573D01*
X255397Y266708D01*
X255966Y265966D01*
X256708Y265397D01*
X257573Y265039D01*
X258500Y264917D01*
X259427Y265039D01*
X260292Y265397D01*
X261034Y265966D01*
X261603Y266708D01*
X261961Y267573D01*
X262083Y268500D01*
X261961Y269427D01*
X261603Y270292D01*
X261034Y271034D01*
X260292Y271603D01*
X259427Y271961D01*
X258500Y272083D01*
D02*
G37*
G36*
X252421Y268000D02*
X249000D01*
Y264579D01*
X249532Y264649D01*
X250493Y265047D01*
X251319Y265681D01*
X251953Y266507D01*
X252351Y267468D01*
X252421Y268000D01*
D02*
G37*
G36*
X248000D02*
X244579D01*
X244649Y267468D01*
X245047Y266507D01*
X245681Y265681D01*
X246507Y265047D01*
X247468Y264649D01*
X248000Y264579D01*
Y268000D01*
D02*
G37*
G36*
X266500Y268141D02*
X265681Y267978D01*
X264986Y267514D01*
X264522Y266819D01*
X264359Y266000D01*
X264522Y265181D01*
X264986Y264486D01*
X265681Y264022D01*
X266500Y263859D01*
X267319Y264022D01*
X268014Y264486D01*
X268478Y265181D01*
X268641Y266000D01*
X268478Y266819D01*
X268014Y267514D01*
X267319Y267978D01*
X266500Y268141D01*
D02*
G37*
G36*
X127500Y269641D02*
X126681Y269478D01*
X125986Y269014D01*
X125522Y268319D01*
X125359Y267500D01*
X125522Y266681D01*
X125986Y265986D01*
X126681Y265522D01*
X126748Y265509D01*
Y264999D01*
X126024Y264855D01*
X125198Y264302D01*
X124645Y263475D01*
X124550Y263000D01*
X129449D01*
X129355Y263475D01*
X128802Y264302D01*
X127975Y264855D01*
X127752Y264899D01*
Y265409D01*
X128319Y265522D01*
X129014Y265986D01*
X129478Y266681D01*
X129641Y267500D01*
X129478Y268319D01*
X129014Y269014D01*
X128319Y269478D01*
X127500Y269641D01*
D02*
G37*
G36*
X146000Y262949D02*
Y261000D01*
X147950D01*
X147855Y261475D01*
X147302Y262302D01*
X146476Y262855D01*
X146000Y262949D01*
D02*
G37*
G36*
X145000D02*
X144525Y262855D01*
X143698Y262302D01*
X143145Y261475D01*
X143051Y261000D01*
X145000D01*
Y262949D01*
D02*
G37*
G36*
X129449Y262000D02*
X127500D01*
Y260051D01*
X127975Y260145D01*
X128802Y260698D01*
X129355Y261525D01*
X129449Y262000D01*
D02*
G37*
G36*
X126500D02*
X124550D01*
X124645Y261525D01*
X125198Y260698D01*
X126024Y260145D01*
X126500Y260051D01*
Y262000D01*
D02*
G37*
G36*
X164000Y261886D02*
X163278Y261743D01*
X162666Y261334D01*
X162257Y260722D01*
X162114Y260000D01*
X162257Y259278D01*
X162666Y258666D01*
X163278Y258257D01*
X164000Y258114D01*
X164722Y258257D01*
X165334Y258666D01*
X165743Y259278D01*
X165886Y260000D01*
X165743Y260722D01*
X165334Y261334D01*
X164722Y261743D01*
X164000Y261886D01*
D02*
G37*
G36*
X147950Y260000D02*
X146000D01*
Y258050D01*
X146476Y258145D01*
X147302Y258698D01*
X147855Y259524D01*
X147950Y260000D01*
D02*
G37*
G36*
X145000D02*
X143051D01*
X143145Y259524D01*
X143698Y258698D01*
X144525Y258145D01*
X145000Y258050D01*
Y260000D01*
D02*
G37*
G36*
X118500Y265083D02*
X117573Y264961D01*
X116708Y264603D01*
X115966Y264034D01*
X115397Y263292D01*
X115039Y262427D01*
X114917Y261500D01*
X115039Y260573D01*
X115397Y259708D01*
X115966Y258966D01*
X116708Y258397D01*
X117573Y258039D01*
X118500Y257917D01*
X119427Y258039D01*
X120292Y258397D01*
X121034Y258966D01*
X121603Y259708D01*
X121961Y260573D01*
X122083Y261500D01*
X121961Y262427D01*
X121603Y263292D01*
X121034Y264034D01*
X120292Y264603D01*
X119427Y264961D01*
X118500Y265083D01*
D02*
G37*
G36*
X176951Y258151D02*
X176131Y257988D01*
X175436Y257524D01*
X174972Y256829D01*
X174809Y256010D01*
X174972Y255190D01*
X175436Y254496D01*
X176131Y254032D01*
X176951Y253869D01*
X177770Y254032D01*
X178464Y254496D01*
X178929Y255190D01*
X179092Y256010D01*
X178929Y256829D01*
X178464Y257524D01*
X177770Y257988D01*
X176951Y258151D01*
D02*
G37*
G36*
X229050Y256548D02*
Y253584D01*
X232014D01*
X231960Y253998D01*
X231607Y254849D01*
X231046Y255580D01*
X230315Y256141D01*
X229464Y256494D01*
X229050Y256548D01*
D02*
G37*
G36*
X228050D02*
X227636Y256494D01*
X226785Y256141D01*
X226054Y255580D01*
X225493Y254849D01*
X225140Y253998D01*
X225086Y253584D01*
X228050D01*
Y256548D01*
D02*
G37*
G36*
X193452Y254755D02*
Y252805D01*
X195401D01*
X195307Y253281D01*
X194754Y254108D01*
X193927Y254660D01*
X193452Y254755D01*
D02*
G37*
G36*
X248500Y254464D02*
Y251500D01*
X251464D01*
X251410Y251914D01*
X251057Y252765D01*
X250496Y253496D01*
X249765Y254057D01*
X248914Y254410D01*
X248500Y254464D01*
D02*
G37*
G36*
X247500D02*
X247086Y254410D01*
X246235Y254057D01*
X245504Y253496D01*
X244943Y252765D01*
X244590Y251914D01*
X244536Y251500D01*
X247500D01*
Y254464D01*
D02*
G37*
G36*
X148157Y254888D02*
X147435Y254744D01*
X146823Y254335D01*
X146414Y253724D01*
X146271Y253002D01*
X146414Y252280D01*
X146823Y251668D01*
X147435Y251259D01*
X148157Y251115D01*
X148879Y251259D01*
X149490Y251668D01*
X149899Y252280D01*
X150043Y253002D01*
X149899Y253724D01*
X149490Y254335D01*
X148879Y254744D01*
X148157Y254888D01*
D02*
G37*
G36*
X288000Y254886D02*
X287278Y254743D01*
X286666Y254334D01*
X286257Y253722D01*
X286114Y253000D01*
X286257Y252278D01*
X286666Y251666D01*
X287278Y251257D01*
X288000Y251114D01*
X288722Y251257D01*
X289334Y251666D01*
X289743Y252278D01*
X289886Y253000D01*
X289743Y253722D01*
X289334Y254334D01*
X288722Y254743D01*
X288000Y254886D01*
D02*
G37*
G36*
X203500Y254141D02*
X202681Y253978D01*
X201986Y253514D01*
X201522Y252819D01*
X201359Y252000D01*
X201522Y251181D01*
X201986Y250486D01*
X202681Y250022D01*
X203500Y249859D01*
X204319Y250022D01*
X205014Y250486D01*
X205478Y251181D01*
X205641Y252000D01*
X205478Y252819D01*
X205014Y253514D01*
X204319Y253978D01*
X203500Y254141D01*
D02*
G37*
G36*
X195401Y251805D02*
X193452D01*
Y249856D01*
X193927Y249951D01*
X194754Y250503D01*
X195307Y251330D01*
X195401Y251805D01*
D02*
G37*
G36*
X189511Y255507D02*
X188692Y255344D01*
X187997Y254880D01*
X187533Y254185D01*
X187370Y253366D01*
X187533Y252546D01*
X187997Y251852D01*
X188692Y251388D01*
X189511Y251224D01*
X190331Y251388D01*
X190766Y251077D01*
X191149Y250503D01*
X191976Y249951D01*
X192452Y249856D01*
Y252306D01*
Y254755D01*
X191976Y254660D01*
X191420Y254289D01*
X191025Y254880D01*
X190331Y255344D01*
X189511Y255507D01*
D02*
G37*
G36*
X232014Y252584D02*
X229050D01*
Y249620D01*
X229464Y249674D01*
X230315Y250027D01*
X231046Y250588D01*
X231607Y251319D01*
X231960Y252170D01*
X232014Y252584D01*
D02*
G37*
G36*
X228050D02*
X225086D01*
X225140Y252170D01*
X225493Y251319D01*
X226054Y250588D01*
X226785Y250027D01*
X227636Y249674D01*
X228050Y249620D01*
Y252584D01*
D02*
G37*
G36*
X262000Y253141D02*
X261181Y252978D01*
X260486Y252514D01*
X260022Y251819D01*
X259859Y251000D01*
X260022Y250181D01*
X260486Y249486D01*
X261181Y249022D01*
X262000Y248859D01*
X262819Y249022D01*
X263514Y249486D01*
X263978Y250181D01*
X264141Y251000D01*
X263978Y251819D01*
X263514Y252514D01*
X262819Y252978D01*
X262000Y253141D01*
D02*
G37*
G36*
X118500Y255083D02*
X117573Y254961D01*
X116708Y254603D01*
X115966Y254034D01*
X115397Y253292D01*
X115039Y252427D01*
X114917Y251500D01*
X115039Y250573D01*
X115397Y249708D01*
X115966Y248966D01*
X116708Y248397D01*
X117573Y248039D01*
X118500Y247917D01*
X119427Y248039D01*
X120292Y248397D01*
X121034Y248966D01*
X121603Y249708D01*
X121961Y250573D01*
X122083Y251500D01*
X121961Y252427D01*
X121603Y253292D01*
X121034Y254034D01*
X120292Y254603D01*
X119427Y254961D01*
X118500Y255083D01*
D02*
G37*
G36*
X251464Y250500D02*
X248500D01*
Y247536D01*
X248914Y247590D01*
X249765Y247943D01*
X250496Y248504D01*
X251057Y249235D01*
X251410Y250086D01*
X251464Y250500D01*
D02*
G37*
G36*
X247500D02*
X244536D01*
X244590Y250086D01*
X244943Y249235D01*
X245504Y248504D01*
X246235Y247943D01*
X247086Y247590D01*
X247500Y247536D01*
Y250500D01*
D02*
G37*
G36*
X186712Y248819D02*
X185018D01*
Y247124D01*
X185396Y247199D01*
X186140Y247697D01*
X186637Y248441D01*
X186712Y248819D01*
D02*
G37*
G36*
X134500Y253127D02*
X133691Y253020D01*
X132937Y252708D01*
X132289Y252211D01*
X131792Y251563D01*
X131480Y250809D01*
X131373Y250000D01*
X131480Y249191D01*
X131792Y248437D01*
X132289Y247789D01*
X132937Y247292D01*
X133691Y246980D01*
X134500Y246873D01*
X135309Y246980D01*
X136063Y247292D01*
X136711Y247789D01*
X137208Y248437D01*
X137520Y249191D01*
X137627Y250000D01*
X137520Y250809D01*
X137208Y251563D01*
X136711Y252211D01*
X136063Y252708D01*
X135309Y253020D01*
X134500Y253127D01*
D02*
G37*
G36*
X162000Y250765D02*
X161181Y250602D01*
X160486Y250138D01*
X160022Y249443D01*
X159859Y248624D01*
X160022Y247805D01*
X160486Y247110D01*
X161181Y246646D01*
X162000Y246483D01*
X162819Y246646D01*
X163514Y247110D01*
X163978Y247805D01*
X164141Y248624D01*
X163978Y249443D01*
X163514Y250138D01*
X162819Y250602D01*
X162000Y250765D01*
D02*
G37*
G36*
X238500Y253083D02*
X237573Y252961D01*
X236708Y252603D01*
X235966Y252034D01*
X235397Y251292D01*
X235039Y250427D01*
X234917Y249500D01*
X235039Y248573D01*
X235397Y247708D01*
X235966Y246966D01*
X236708Y246397D01*
X237573Y246039D01*
X238500Y245917D01*
X239427Y246039D01*
X240292Y246397D01*
X241034Y246966D01*
X241603Y247708D01*
X241961Y248573D01*
X242083Y249500D01*
X241961Y250427D01*
X241603Y251292D01*
X241034Y252034D01*
X240292Y252603D01*
X239427Y252961D01*
X238500Y253083D01*
D02*
G37*
G36*
X199942Y247008D02*
Y245058D01*
X201891D01*
X201797Y245534D01*
X201244Y246361D01*
X200417Y246913D01*
X199942Y247008D01*
D02*
G37*
G36*
X281000Y247386D02*
X280278Y247243D01*
X279666Y246834D01*
X279257Y246222D01*
X279114Y245500D01*
X279257Y244778D01*
X279666Y244166D01*
X280278Y243757D01*
X281000Y243614D01*
X281722Y243757D01*
X282334Y244166D01*
X282743Y244778D01*
X282886Y245500D01*
X282743Y246222D01*
X282334Y246834D01*
X281722Y247243D01*
X281000Y247386D01*
D02*
G37*
G36*
X232478Y247620D02*
X231659Y247457D01*
X230964Y246992D01*
X230500Y246298D01*
X230337Y245479D01*
X230500Y244659D01*
X230964Y243965D01*
X231659Y243500D01*
X232478Y243337D01*
X233298Y243500D01*
X233993Y243965D01*
X234457Y244659D01*
X234620Y245479D01*
X234457Y246298D01*
X233993Y246992D01*
X233298Y247457D01*
X232478Y247620D01*
D02*
G37*
G36*
X214305Y247524D02*
X213486Y247361D01*
X212791Y246897D01*
X212327Y246202D01*
X212164Y245383D01*
X212327Y244564D01*
X212791Y243869D01*
X213486Y243405D01*
X214305Y243242D01*
X215125Y243405D01*
X215819Y243869D01*
X216284Y244564D01*
X216447Y245383D01*
X216284Y246202D01*
X215819Y246897D01*
X215125Y247361D01*
X214305Y247524D01*
D02*
G37*
G36*
X208000Y247241D02*
X207181Y247078D01*
X206486Y246614D01*
X206022Y245919D01*
X205859Y245100D01*
X206022Y244281D01*
X206486Y243586D01*
X207181Y243122D01*
X208000Y242959D01*
X208819Y243122D01*
X209514Y243586D01*
X209978Y244281D01*
X210141Y245100D01*
X209978Y245919D01*
X209514Y246614D01*
X208819Y247078D01*
X208000Y247241D01*
D02*
G37*
G36*
X119000Y245421D02*
Y242000D01*
X122421D01*
X122351Y242532D01*
X121953Y243493D01*
X121319Y244319D01*
X120493Y244953D01*
X119532Y245351D01*
X119000Y245421D01*
D02*
G37*
G36*
X118000D02*
X117468Y245351D01*
X116507Y244953D01*
X115681Y244319D01*
X115047Y243493D01*
X114649Y242532D01*
X114579Y242000D01*
X118000D01*
Y245421D01*
D02*
G37*
G36*
X131300Y240950D02*
Y239000D01*
X133249D01*
X133155Y239475D01*
X132602Y240302D01*
X131775Y240855D01*
X131300Y240950D01*
D02*
G37*
G36*
X130300D02*
X129824Y240855D01*
X128998Y240302D01*
X128445Y239475D01*
X128350Y239000D01*
X130300D01*
Y240950D01*
D02*
G37*
G36*
X179500Y242386D02*
X178778Y242243D01*
X178166Y241834D01*
X177757Y241222D01*
X177614Y240500D01*
X177757Y239778D01*
X178166Y239166D01*
X178778Y238757D01*
X179500Y238614D01*
X180222Y238757D01*
X180834Y239166D01*
X181243Y239778D01*
X181386Y240500D01*
X181243Y241222D01*
X180834Y241834D01*
X180222Y242243D01*
X179500Y242386D01*
D02*
G37*
G36*
X122421Y241000D02*
X119000D01*
Y237579D01*
X119532Y237649D01*
X120493Y238047D01*
X121319Y238681D01*
X121953Y239507D01*
X122351Y240468D01*
X122421Y241000D01*
D02*
G37*
G36*
X118000D02*
X114579D01*
X114649Y240468D01*
X115047Y239507D01*
X115681Y238681D01*
X116507Y238047D01*
X117468Y237649D01*
X118000Y237579D01*
Y241000D01*
D02*
G37*
G36*
X184500Y241141D02*
X183681Y240978D01*
X182986Y240514D01*
X182522Y239819D01*
X182359Y239000D01*
X182522Y238181D01*
X182986Y237486D01*
X183681Y237022D01*
X184500Y236859D01*
X185319Y237022D01*
X186014Y237486D01*
X186478Y238181D01*
X186641Y239000D01*
X186478Y239819D01*
X186014Y240514D01*
X185319Y240978D01*
X184500Y241141D01*
D02*
G37*
G36*
X133249Y238000D02*
X131300D01*
Y236051D01*
X131775Y236145D01*
X132602Y236698D01*
X133155Y237525D01*
X133249Y238000D01*
D02*
G37*
G36*
X130300D02*
X128350D01*
X128445Y237525D01*
X128998Y236698D01*
X129824Y236145D01*
X130300Y236051D01*
Y238000D01*
D02*
G37*
G36*
X234000Y242583D02*
X233073Y242461D01*
X232208Y242103D01*
X231466Y241534D01*
X230897Y240792D01*
X230539Y239927D01*
X230417Y239000D01*
X230539Y238073D01*
X230897Y237208D01*
X231466Y236466D01*
X232208Y235897D01*
X233073Y235539D01*
X234000Y235417D01*
X234927Y235539D01*
X235792Y235897D01*
X236534Y236466D01*
X237103Y237208D01*
X237461Y238073D01*
X237583Y239000D01*
X237461Y239927D01*
X237103Y240792D01*
X236534Y241534D01*
X235792Y242103D01*
X234927Y242461D01*
X234000Y242583D01*
D02*
G37*
G36*
X209000Y241127D02*
X208191Y241020D01*
X207437Y240708D01*
X206789Y240211D01*
X206292Y239563D01*
X205980Y238809D01*
X205873Y238000D01*
X205980Y237191D01*
X206292Y236437D01*
X206789Y235789D01*
X207437Y235292D01*
X208191Y234980D01*
X209000Y234873D01*
X209809Y234980D01*
X210563Y235292D01*
X211211Y235789D01*
X211708Y236437D01*
X212020Y237191D01*
X212127Y238000D01*
X212020Y238809D01*
X211708Y239563D01*
X211211Y240211D01*
X210563Y240708D01*
X209809Y241020D01*
X209000Y241127D01*
D02*
G37*
G36*
X151000Y240583D02*
X150073Y240461D01*
X149208Y240103D01*
X148466Y239534D01*
X147897Y238792D01*
X147539Y237927D01*
X147417Y237000D01*
X147539Y236073D01*
X147897Y235208D01*
X148466Y234466D01*
X149208Y233897D01*
X150073Y233539D01*
X151000Y233417D01*
X151927Y233539D01*
X152792Y233897D01*
X153534Y234466D01*
X154103Y235208D01*
X154461Y236073D01*
X154583Y237000D01*
X154461Y237927D01*
X154103Y238792D01*
X153534Y239534D01*
X152792Y240103D01*
X151927Y240461D01*
X151000Y240583D01*
D02*
G37*
G36*
X196500Y235641D02*
X195681Y235478D01*
X194986Y235014D01*
X194522Y234319D01*
X194359Y233500D01*
X194522Y232681D01*
X194986Y231986D01*
X195681Y231522D01*
X196500Y231359D01*
X197319Y231522D01*
X198014Y231986D01*
X198478Y232681D01*
X198641Y233500D01*
X198478Y234319D01*
X198014Y235014D01*
X197319Y235478D01*
X196500Y235641D01*
D02*
G37*
G36*
X197000Y251141D02*
X196181Y250978D01*
X195486Y250514D01*
X195022Y249819D01*
X194859Y249000D01*
X195022Y248181D01*
X195486Y247486D01*
X195496Y247479D01*
Y246485D01*
X195364Y246288D01*
X195278Y245859D01*
X195278Y245859D01*
Y243923D01*
X195278Y243923D01*
X195364Y243494D01*
X195607Y243130D01*
X200653Y238084D01*
Y222495D01*
X200653Y222495D01*
X200738Y222065D01*
X200981Y221701D01*
X215053Y207630D01*
Y203826D01*
X215053Y203826D01*
X215138Y203397D01*
X215381Y203033D01*
X215816Y202598D01*
X215539Y201927D01*
X215417Y201000D01*
X215539Y200073D01*
X215897Y199208D01*
X216466Y198466D01*
X217208Y197897D01*
X218073Y197539D01*
X219000Y197417D01*
X219927Y197539D01*
X220792Y197897D01*
X221534Y198466D01*
X222103Y199208D01*
X222461Y200073D01*
X222583Y201000D01*
X222461Y201927D01*
X222103Y202792D01*
X221534Y203534D01*
X220792Y204103D01*
X219927Y204461D01*
X219000Y204583D01*
X218073Y204461D01*
X217796Y204347D01*
X217296Y204681D01*
Y208094D01*
X217296Y208095D01*
X217210Y208524D01*
X216967Y208888D01*
X216967Y208888D01*
X202896Y222959D01*
Y231048D01*
X203337Y231284D01*
X203584Y231119D01*
X204403Y230956D01*
X205223Y231119D01*
X205917Y231583D01*
X206381Y232277D01*
X206544Y233097D01*
X206381Y233916D01*
X205917Y234611D01*
X205223Y235075D01*
X204403Y235238D01*
X203584Y235075D01*
X203337Y234910D01*
X202896Y235146D01*
Y238549D01*
X202896Y238549D01*
X202810Y238978D01*
X202567Y239342D01*
X202567Y239342D01*
X200199Y241710D01*
X200344Y242189D01*
X200417Y242203D01*
X201244Y242756D01*
X201797Y243583D01*
X201891Y244058D01*
X199442D01*
Y244558D01*
X198942D01*
Y247008D01*
X198595Y246939D01*
X198400Y247410D01*
X198514Y247486D01*
X198978Y248181D01*
X199141Y249000D01*
X198978Y249819D01*
X198514Y250514D01*
X197819Y250978D01*
X197000Y251141D01*
D02*
G37*
G36*
X191300Y234641D02*
X190481Y234478D01*
X189786Y234014D01*
X189322Y233319D01*
X189159Y232500D01*
X189322Y231681D01*
X189786Y230986D01*
X190481Y230522D01*
X191300Y230359D01*
X192119Y230522D01*
X192814Y230986D01*
X193278Y231681D01*
X193441Y232500D01*
X193278Y233319D01*
X192814Y234014D01*
X192119Y234478D01*
X191300Y234641D01*
D02*
G37*
G36*
X122053Y235053D02*
X114947D01*
Y227947D01*
X122053D01*
Y235053D01*
D02*
G37*
G36*
X235500Y233627D02*
X234691Y233520D01*
X233937Y233208D01*
X233289Y232711D01*
X232792Y232063D01*
X232480Y231309D01*
X232373Y230500D01*
X232480Y229691D01*
X232792Y228937D01*
X233289Y228289D01*
X233937Y227792D01*
X234691Y227480D01*
X235500Y227373D01*
X236309Y227480D01*
X237063Y227792D01*
X237711Y228289D01*
X238208Y228937D01*
X238520Y229691D01*
X238627Y230500D01*
X238520Y231309D01*
X238208Y232063D01*
X237711Y232711D01*
X237063Y233208D01*
X236309Y233520D01*
X235500Y233627D01*
D02*
G37*
G36*
X283000Y228450D02*
Y226500D01*
X284949D01*
X284855Y226975D01*
X284302Y227802D01*
X283475Y228355D01*
X283000Y228450D01*
D02*
G37*
G36*
X282000D02*
X281524Y228355D01*
X280698Y227802D01*
X280145Y226975D01*
X280050Y226500D01*
X282000D01*
Y228450D01*
D02*
G37*
G36*
X284949Y225500D02*
X283000D01*
Y223551D01*
X283475Y223645D01*
X284302Y224198D01*
X284855Y225025D01*
X284949Y225500D01*
D02*
G37*
G36*
X282000D02*
X280050D01*
X280145Y225025D01*
X280698Y224198D01*
X281524Y223645D01*
X282000Y223551D01*
Y225500D01*
D02*
G37*
G36*
X156500Y224641D02*
X155681Y224478D01*
X154986Y224014D01*
X154522Y223319D01*
X154359Y222500D01*
X154522Y221681D01*
X154986Y220986D01*
X155681Y220522D01*
X156500Y220359D01*
X157319Y220522D01*
X158014Y220986D01*
X158478Y221681D01*
X158641Y222500D01*
X158478Y223319D01*
X158014Y224014D01*
X157319Y224478D01*
X156500Y224641D01*
D02*
G37*
G36*
X254111Y224252D02*
X253291Y224089D01*
X252597Y223625D01*
X252133Y222930D01*
X251970Y222111D01*
X252133Y221291D01*
X252597Y220597D01*
X253291Y220132D01*
X254111Y219970D01*
X254930Y220132D01*
X255625Y220597D01*
X256089Y221291D01*
X256252Y222111D01*
X256089Y222930D01*
X255625Y223625D01*
X254930Y224089D01*
X254111Y224252D01*
D02*
G37*
G36*
X273500Y222641D02*
X272681Y222478D01*
X271986Y222014D01*
X271522Y221319D01*
X271359Y220500D01*
X271522Y219681D01*
X271986Y218986D01*
X272681Y218522D01*
X273500Y218359D01*
X274319Y218522D01*
X275014Y218986D01*
X275478Y219681D01*
X275641Y220500D01*
X275478Y221319D01*
X275014Y222014D01*
X274319Y222478D01*
X273500Y222641D01*
D02*
G37*
G36*
X163500Y219195D02*
Y217500D01*
X165195D01*
X165120Y217878D01*
X164622Y218622D01*
X163878Y219120D01*
X163500Y219195D01*
D02*
G37*
G36*
X162500D02*
X162122Y219120D01*
X161378Y218622D01*
X160880Y217878D01*
X160805Y217500D01*
X162500D01*
Y219195D01*
D02*
G37*
G36*
X165195Y216500D02*
X163500D01*
Y214805D01*
X163878Y214880D01*
X164622Y215378D01*
X165120Y216122D01*
X165195Y216500D01*
D02*
G37*
G36*
X162500D02*
X160805D01*
X160880Y216122D01*
X161378Y215378D01*
X162122Y214880D01*
X162500Y214805D01*
Y216500D01*
D02*
G37*
G36*
X285500Y215195D02*
Y213500D01*
X287195D01*
X287120Y213878D01*
X286622Y214622D01*
X285878Y215120D01*
X285500Y215195D01*
D02*
G37*
G36*
X284500D02*
X284122Y215120D01*
X283378Y214622D01*
X282880Y213878D01*
X282805Y213500D01*
X284500D01*
Y215195D01*
D02*
G37*
G36*
X287195Y212500D02*
X285500D01*
Y210805D01*
X285878Y210880D01*
X286622Y211378D01*
X287120Y212122D01*
X287195Y212500D01*
D02*
G37*
G36*
X284500D02*
X282805D01*
X282880Y212122D01*
X283378Y211378D01*
X284122Y210880D01*
X284500Y210805D01*
Y212500D01*
D02*
G37*
G36*
X219500Y216083D02*
X218573Y215961D01*
X217708Y215603D01*
X216966Y215034D01*
X216397Y214292D01*
X216039Y213427D01*
X215917Y212500D01*
X216039Y211573D01*
X216397Y210708D01*
X216966Y209966D01*
X217708Y209397D01*
X218573Y209039D01*
X219500Y208917D01*
X220427Y209039D01*
X221292Y209397D01*
X222034Y209966D01*
X222603Y210708D01*
X222961Y211573D01*
X223083Y212500D01*
X222961Y213427D01*
X222603Y214292D01*
X222034Y215034D01*
X221292Y215603D01*
X220427Y215961D01*
X219500Y216083D01*
D02*
G37*
G36*
X156996Y213587D02*
X156069Y213465D01*
X155204Y213107D01*
X154462Y212538D01*
X153893Y211796D01*
X153535Y210931D01*
X153413Y210004D01*
X153535Y209076D01*
X153893Y208212D01*
X154462Y207470D01*
X155204Y206901D01*
X156069Y206543D01*
X156996Y206421D01*
X157923Y206543D01*
X158788Y206901D01*
X159530Y207470D01*
X160099Y208212D01*
X160457Y209076D01*
X160579Y210004D01*
X160457Y210931D01*
X160099Y211796D01*
X159530Y212538D01*
X158788Y213107D01*
X157923Y213465D01*
X156996Y213587D01*
D02*
G37*
G36*
X260500Y210141D02*
X259681Y209978D01*
X258986Y209514D01*
X258522Y208819D01*
X258359Y208000D01*
X258522Y207181D01*
X258986Y206486D01*
X259681Y206022D01*
X260500Y205859D01*
X260900Y205938D01*
X261327Y205996D01*
X261443Y205575D01*
X261522Y205181D01*
X261986Y204486D01*
X262681Y204022D01*
X263500Y203859D01*
X264319Y204022D01*
X265014Y204486D01*
X265478Y205181D01*
X265641Y206000D01*
X265478Y206819D01*
X265014Y207514D01*
X264319Y207978D01*
X263500Y208141D01*
X263100Y208062D01*
X262673Y208004D01*
X262557Y208424D01*
X262478Y208819D01*
X262014Y209514D01*
X261319Y209978D01*
X260500Y210141D01*
D02*
G37*
G36*
X168000Y201449D02*
Y199500D01*
X169949D01*
X169855Y199976D01*
X169302Y200802D01*
X168475Y201355D01*
X168000Y201449D01*
D02*
G37*
G36*
X167000D02*
X166525Y201355D01*
X165698Y200802D01*
X165145Y199976D01*
X165050Y199500D01*
X167000D01*
Y201449D01*
D02*
G37*
G36*
X183500Y205583D02*
X182573Y205461D01*
X181708Y205103D01*
X180966Y204534D01*
X180397Y203792D01*
X180039Y202927D01*
X179917Y202000D01*
X180039Y201073D01*
X180397Y200208D01*
X180966Y199466D01*
X181708Y198897D01*
X182573Y198539D01*
X183500Y198417D01*
X184427Y198539D01*
X185292Y198897D01*
X186034Y199466D01*
X186603Y200208D01*
X186961Y201073D01*
X187083Y202000D01*
X186961Y202927D01*
X186603Y203792D01*
X186034Y204534D01*
X185292Y205103D01*
X184427Y205461D01*
X183500Y205583D01*
D02*
G37*
G36*
X207500Y204083D02*
X206573Y203961D01*
X205708Y203603D01*
X204966Y203034D01*
X204397Y202292D01*
X204039Y201427D01*
X203917Y200500D01*
X204039Y199573D01*
X204397Y198708D01*
X204966Y197966D01*
X205708Y197397D01*
X206573Y197039D01*
X207500Y196917D01*
X208427Y197039D01*
X209292Y197397D01*
X210034Y197966D01*
X210603Y198708D01*
X210961Y199573D01*
X211083Y200500D01*
X210961Y201427D01*
X210603Y202292D01*
X210034Y203034D01*
X209292Y203603D01*
X208427Y203961D01*
X207500Y204083D01*
D02*
G37*
G36*
X169949Y198500D02*
X168000D01*
Y196551D01*
X168475Y196645D01*
X169302Y197198D01*
X169855Y198024D01*
X169949Y198500D01*
D02*
G37*
G36*
X167000D02*
X165050D01*
X165145Y198024D01*
X165698Y197198D01*
X166525Y196645D01*
X167000Y196551D01*
Y198500D01*
D02*
G37*
G36*
X195500Y203583D02*
X194573Y203461D01*
X193708Y203103D01*
X192966Y202534D01*
X192397Y201792D01*
X192039Y200927D01*
X191917Y200000D01*
X192039Y199073D01*
X192397Y198208D01*
X192966Y197466D01*
X193708Y196897D01*
X194573Y196539D01*
X195500Y196417D01*
X196427Y196539D01*
X197292Y196897D01*
X198034Y197466D01*
X198603Y198208D01*
X198961Y199073D01*
X199083Y200000D01*
X198961Y200927D01*
X198603Y201792D01*
X198034Y202534D01*
X197292Y203103D01*
X196427Y203461D01*
X195500Y203583D01*
D02*
G37*
G36*
X235250Y199391D02*
X234431Y199228D01*
X233736Y198764D01*
X233272Y198069D01*
X233109Y197250D01*
X233272Y196431D01*
X233736Y195736D01*
X234431Y195272D01*
X235250Y195109D01*
X236069Y195272D01*
X236764Y195736D01*
X237228Y196431D01*
X237391Y197250D01*
X237228Y198069D01*
X236764Y198764D01*
X236069Y199228D01*
X235250Y199391D01*
D02*
G37*
G36*
X296342Y198984D02*
X295523Y198821D01*
X294828Y198356D01*
X294364Y197662D01*
X294201Y196842D01*
X294364Y196023D01*
X294828Y195328D01*
X295523Y194864D01*
X296342Y194701D01*
X297162Y194864D01*
X297856Y195328D01*
X298321Y196023D01*
X298484Y196842D01*
X298321Y197662D01*
X297856Y198356D01*
X297162Y198821D01*
X296342Y198984D01*
D02*
G37*
G36*
X288500Y193641D02*
X287681Y193478D01*
X286986Y193014D01*
X286522Y192319D01*
X286359Y191500D01*
X286522Y190681D01*
X286986Y189986D01*
X287681Y189522D01*
X288500Y189359D01*
X289319Y189522D01*
X290014Y189986D01*
X290478Y190681D01*
X290641Y191500D01*
X290478Y192319D01*
X290014Y193014D01*
X289319Y193478D01*
X288500Y193641D01*
D02*
G37*
G36*
X170500Y190886D02*
X169778Y190743D01*
X169166Y190334D01*
X168757Y189722D01*
X168614Y189000D01*
X168757Y188278D01*
X169166Y187666D01*
X169778Y187257D01*
X170500Y187114D01*
X171222Y187257D01*
X171834Y187666D01*
X172243Y188278D01*
X172386Y189000D01*
X172243Y189722D01*
X171834Y190334D01*
X171222Y190743D01*
X170500Y190886D01*
D02*
G37*
G36*
X115000Y188127D02*
X114191Y188020D01*
X113437Y187708D01*
X112789Y187211D01*
X112292Y186563D01*
X111980Y185809D01*
X111873Y185000D01*
X111980Y184191D01*
X112292Y183437D01*
X112789Y182789D01*
X113437Y182292D01*
X114191Y181980D01*
X115000Y181873D01*
X115809Y181980D01*
X116563Y182292D01*
X117211Y182789D01*
X117708Y183437D01*
X118020Y184191D01*
X118127Y185000D01*
X118020Y185809D01*
X117708Y186563D01*
X117211Y187211D01*
X116563Y187708D01*
X115809Y188020D01*
X115000Y188127D01*
D02*
G37*
G36*
X145000Y182583D02*
X144073Y182461D01*
X143208Y182103D01*
X142466Y181534D01*
X141897Y180792D01*
X141539Y179927D01*
X141417Y179000D01*
X141539Y178073D01*
X141897Y177208D01*
X142466Y176466D01*
X143208Y175897D01*
X144073Y175539D01*
X145000Y175417D01*
X145927Y175539D01*
X146792Y175897D01*
X147534Y176466D01*
X148103Y177208D01*
X148461Y178073D01*
X148583Y179000D01*
X148461Y179927D01*
X148103Y180792D01*
X147534Y181534D01*
X146792Y182103D01*
X145927Y182461D01*
X145000Y182583D01*
D02*
G37*
G36*
X178500Y180083D02*
X177573Y179961D01*
X176708Y179603D01*
X175966Y179034D01*
X175397Y178292D01*
X175039Y177427D01*
X174917Y176500D01*
X175039Y175573D01*
X175397Y174708D01*
X175966Y173966D01*
X176708Y173397D01*
X177573Y173039D01*
X178500Y172917D01*
X179427Y173039D01*
X180292Y173397D01*
X181034Y173966D01*
X181603Y174708D01*
X181961Y175573D01*
X182083Y176500D01*
X181961Y177427D01*
X181603Y178292D01*
X181034Y179034D01*
X180292Y179603D01*
X179427Y179961D01*
X178500Y180083D01*
D02*
G37*
G36*
X212000Y169386D02*
X211278Y169243D01*
X210666Y168834D01*
X210257Y168222D01*
X210114Y167500D01*
X210257Y166778D01*
X210666Y166166D01*
X211278Y165757D01*
X212000Y165614D01*
X212722Y165757D01*
X213334Y166166D01*
X213743Y166778D01*
X213886Y167500D01*
X213743Y168222D01*
X213334Y168834D01*
X212722Y169243D01*
X212000Y169386D01*
D02*
G37*
G36*
X236019Y165987D02*
X235297Y165844D01*
X234685Y165435D01*
X234277Y164823D01*
X234133Y164101D01*
X234277Y163379D01*
X234685Y162767D01*
X235297Y162358D01*
X236019Y162215D01*
X236741Y162358D01*
X237353Y162767D01*
X237762Y163379D01*
X237905Y164101D01*
X237762Y164823D01*
X237353Y165435D01*
X236741Y165844D01*
X236019Y165987D01*
D02*
G37*
G36*
X156775Y162992D02*
X155966Y162886D01*
X155212Y162574D01*
X154564Y162077D01*
X154068Y161429D01*
X153755Y160675D01*
X153649Y159866D01*
X153755Y159056D01*
X154068Y158302D01*
X154564Y157655D01*
X155212Y157158D01*
X155966Y156845D01*
X156775Y156739D01*
X157585Y156845D01*
X158339Y157158D01*
X158986Y157655D01*
X159483Y158302D01*
X159796Y159056D01*
X159902Y159866D01*
X159796Y160675D01*
X159483Y161429D01*
X158986Y162077D01*
X158339Y162574D01*
X157585Y162886D01*
X156775Y162992D01*
D02*
G37*
G36*
X260603Y160456D02*
X259881Y160312D01*
X259269Y159903D01*
X258861Y159292D01*
X258717Y158570D01*
X258861Y157848D01*
X259269Y157236D01*
X259881Y156827D01*
X260603Y156683D01*
X261325Y156827D01*
X261937Y157236D01*
X262346Y157848D01*
X262490Y158570D01*
X262346Y159292D01*
X261937Y159903D01*
X261325Y160312D01*
X260603Y160456D01*
D02*
G37*
G36*
X194500Y154964D02*
Y152000D01*
X197464D01*
X197410Y152414D01*
X197057Y153265D01*
X196496Y153996D01*
X195765Y154557D01*
X194914Y154910D01*
X194500Y154964D01*
D02*
G37*
G36*
X193500D02*
X193086Y154910D01*
X192235Y154557D01*
X191504Y153996D01*
X190943Y153265D01*
X190590Y152414D01*
X190536Y152000D01*
X193500D01*
Y154964D01*
D02*
G37*
G36*
X235500Y151950D02*
Y150000D01*
X237450D01*
X237355Y150476D01*
X236802Y151302D01*
X235976Y151855D01*
X235500Y151950D01*
D02*
G37*
G36*
X234500D02*
X234025Y151855D01*
X233198Y151302D01*
X232645Y150476D01*
X232551Y150000D01*
X234500D01*
Y151950D01*
D02*
G37*
G36*
X117500Y152921D02*
Y149500D01*
X120921D01*
X120851Y150032D01*
X120453Y150993D01*
X119819Y151819D01*
X118993Y152453D01*
X118032Y152851D01*
X117500Y152921D01*
D02*
G37*
G36*
X116500D02*
X115968Y152851D01*
X115007Y152453D01*
X114181Y151819D01*
X113547Y150993D01*
X113149Y150032D01*
X113079Y149500D01*
X116500D01*
Y152921D01*
D02*
G37*
G36*
X197464Y151000D02*
X194500D01*
Y148036D01*
X194914Y148090D01*
X195765Y148443D01*
X196496Y149004D01*
X197057Y149735D01*
X197410Y150586D01*
X197464Y151000D01*
D02*
G37*
G36*
X193500D02*
X190536D01*
X190590Y150586D01*
X190943Y149735D01*
X191504Y149004D01*
X192235Y148443D01*
X193086Y148090D01*
X193500Y148036D01*
Y151000D01*
D02*
G37*
G36*
X237450Y149000D02*
X235500D01*
Y147050D01*
X235976Y147145D01*
X236802Y147698D01*
X237355Y148524D01*
X237450Y149000D01*
D02*
G37*
G36*
X234500D02*
X232551D01*
X232645Y148524D01*
X233198Y147698D01*
X234025Y147145D01*
X234500Y147050D01*
Y149000D01*
D02*
G37*
G36*
X120921Y148500D02*
X117500D01*
Y145079D01*
X118032Y145149D01*
X118993Y145547D01*
X119819Y146181D01*
X120453Y147007D01*
X120851Y147968D01*
X120921Y148500D01*
D02*
G37*
G36*
X116500D02*
X113079D01*
X113149Y147968D01*
X113547Y147007D01*
X114181Y146181D01*
X115007Y145547D01*
X115968Y145149D01*
X116500Y145079D01*
Y148500D01*
D02*
G37*
G36*
X284500Y141083D02*
X283573Y140961D01*
X282708Y140603D01*
X281966Y140034D01*
X281397Y139292D01*
X281039Y138427D01*
X280917Y137500D01*
X281039Y136573D01*
X281397Y135708D01*
X281966Y134966D01*
X282708Y134397D01*
X283573Y134039D01*
X284500Y133917D01*
X285427Y134039D01*
X286292Y134397D01*
X287034Y134966D01*
X287603Y135708D01*
X287961Y136573D01*
X288083Y137500D01*
X287961Y138427D01*
X287603Y139292D01*
X287034Y140034D01*
X286292Y140603D01*
X285427Y140961D01*
X284500Y141083D01*
D02*
G37*
G36*
X265589Y138565D02*
X258483D01*
Y131459D01*
X265589D01*
Y138565D01*
D02*
G37*
G36*
X133053Y138553D02*
X125947D01*
Y131447D01*
X133053D01*
Y138553D01*
D02*
G37*
G36*
X252036Y138595D02*
X251109Y138473D01*
X250244Y138115D01*
X249502Y137546D01*
X248933Y136803D01*
X248575Y135939D01*
X248453Y135012D01*
X248575Y134084D01*
X248933Y133220D01*
X249502Y132478D01*
X250244Y131909D01*
X251109Y131551D01*
X252036Y131428D01*
X252964Y131551D01*
X253828Y131909D01*
X254570Y132478D01*
X255139Y133220D01*
X255497Y134084D01*
X255620Y135012D01*
X255497Y135939D01*
X255139Y136803D01*
X254570Y137546D01*
X253828Y138115D01*
X252964Y138473D01*
X252036Y138595D01*
D02*
G37*
G36*
X242036D02*
X241109Y138473D01*
X240244Y138115D01*
X239502Y137546D01*
X238933Y136803D01*
X238575Y135939D01*
X238453Y135012D01*
X238575Y134084D01*
X238933Y133220D01*
X239502Y132478D01*
X240244Y131909D01*
X241109Y131551D01*
X242036Y131428D01*
X242964Y131551D01*
X243828Y131909D01*
X244570Y132478D01*
X245140Y133220D01*
X245497Y134084D01*
X245620Y135012D01*
X245497Y135939D01*
X245140Y136803D01*
X244570Y137546D01*
X243828Y138115D01*
X242964Y138473D01*
X242036Y138595D01*
D02*
G37*
G36*
X232036D02*
X231109Y138473D01*
X230244Y138115D01*
X229502Y137546D01*
X228933Y136803D01*
X228575Y135939D01*
X228453Y135012D01*
X228575Y134084D01*
X228933Y133220D01*
X229502Y132478D01*
X230244Y131909D01*
X231109Y131551D01*
X232036Y131428D01*
X232964Y131551D01*
X233828Y131909D01*
X234570Y132478D01*
X235139Y133220D01*
X235497Y134084D01*
X235619Y135012D01*
X235497Y135939D01*
X235139Y136803D01*
X234570Y137546D01*
X233828Y138115D01*
X232964Y138473D01*
X232036Y138595D01*
D02*
G37*
G36*
X222036D02*
X221109Y138473D01*
X220244Y138115D01*
X219502Y137546D01*
X218933Y136803D01*
X218575Y135939D01*
X218453Y135012D01*
X218575Y134084D01*
X218933Y133220D01*
X219502Y132478D01*
X220244Y131909D01*
X221109Y131551D01*
X222036Y131428D01*
X222964Y131551D01*
X223828Y131909D01*
X224570Y132478D01*
X225139Y133220D01*
X225497Y134084D01*
X225620Y135012D01*
X225497Y135939D01*
X225139Y136803D01*
X224570Y137546D01*
X223828Y138115D01*
X222964Y138473D01*
X222036Y138595D01*
D02*
G37*
G36*
X212036D02*
X211109Y138473D01*
X210244Y138115D01*
X209502Y137546D01*
X208933Y136803D01*
X208575Y135939D01*
X208453Y135012D01*
X208575Y134084D01*
X208933Y133220D01*
X209502Y132478D01*
X210244Y131909D01*
X211109Y131551D01*
X212036Y131428D01*
X212964Y131551D01*
X213828Y131909D01*
X214570Y132478D01*
X215140Y133220D01*
X215497Y134084D01*
X215619Y135012D01*
X215497Y135939D01*
X215140Y136803D01*
X214570Y137546D01*
X213828Y138115D01*
X212964Y138473D01*
X212036Y138595D01*
D02*
G37*
G36*
X199500Y138583D02*
X198573Y138461D01*
X197708Y138103D01*
X196966Y137534D01*
X196397Y136792D01*
X196039Y135927D01*
X195917Y135000D01*
X196039Y134073D01*
X196397Y133208D01*
X196966Y132466D01*
X197708Y131897D01*
X198573Y131539D01*
X199500Y131417D01*
X200427Y131539D01*
X201292Y131897D01*
X202034Y132466D01*
X202603Y133208D01*
X202961Y134073D01*
X203083Y135000D01*
X202961Y135927D01*
X202603Y136792D01*
X202034Y137534D01*
X201292Y138103D01*
X200427Y138461D01*
X199500Y138583D01*
D02*
G37*
G36*
X189500D02*
X188573Y138461D01*
X187708Y138103D01*
X186966Y137534D01*
X186397Y136792D01*
X186039Y135927D01*
X185917Y135000D01*
X186039Y134073D01*
X186397Y133208D01*
X186966Y132466D01*
X187708Y131897D01*
X188573Y131539D01*
X189500Y131417D01*
X190427Y131539D01*
X191292Y131897D01*
X192034Y132466D01*
X192603Y133208D01*
X192961Y134073D01*
X193083Y135000D01*
X192961Y135927D01*
X192603Y136792D01*
X192034Y137534D01*
X191292Y138103D01*
X190427Y138461D01*
X189500Y138583D01*
D02*
G37*
G36*
X179500D02*
X178573Y138461D01*
X177708Y138103D01*
X176966Y137534D01*
X176397Y136792D01*
X176039Y135927D01*
X175917Y135000D01*
X176039Y134073D01*
X176397Y133208D01*
X176966Y132466D01*
X177708Y131897D01*
X178573Y131539D01*
X179500Y131417D01*
X180427Y131539D01*
X181292Y131897D01*
X182034Y132466D01*
X182603Y133208D01*
X182961Y134073D01*
X183083Y135000D01*
X182961Y135927D01*
X182603Y136792D01*
X182034Y137534D01*
X181292Y138103D01*
X180427Y138461D01*
X179500Y138583D01*
D02*
G37*
G36*
X169500D02*
X168573Y138461D01*
X167708Y138103D01*
X166966Y137534D01*
X166397Y136792D01*
X166039Y135927D01*
X165917Y135000D01*
X166039Y134073D01*
X166397Y133208D01*
X166966Y132466D01*
X167708Y131897D01*
X168573Y131539D01*
X169500Y131417D01*
X170427Y131539D01*
X171292Y131897D01*
X172034Y132466D01*
X172603Y133208D01*
X172961Y134073D01*
X173083Y135000D01*
X172961Y135927D01*
X172603Y136792D01*
X172034Y137534D01*
X171292Y138103D01*
X170427Y138461D01*
X169500Y138583D01*
D02*
G37*
G36*
X159500D02*
X158573Y138461D01*
X157708Y138103D01*
X156966Y137534D01*
X156397Y136792D01*
X156039Y135927D01*
X155917Y135000D01*
X156039Y134073D01*
X156397Y133208D01*
X156966Y132466D01*
X157708Y131897D01*
X158573Y131539D01*
X159500Y131417D01*
X160427Y131539D01*
X161292Y131897D01*
X162034Y132466D01*
X162603Y133208D01*
X162961Y134073D01*
X163083Y135000D01*
X162961Y135927D01*
X162603Y136792D01*
X162034Y137534D01*
X161292Y138103D01*
X160427Y138461D01*
X159500Y138583D01*
D02*
G37*
G36*
X149500D02*
X148573Y138461D01*
X147708Y138103D01*
X146966Y137534D01*
X146397Y136792D01*
X146039Y135927D01*
X145917Y135000D01*
X146039Y134073D01*
X146397Y133208D01*
X146966Y132466D01*
X147708Y131897D01*
X148573Y131539D01*
X149500Y131417D01*
X150427Y131539D01*
X151292Y131897D01*
X152034Y132466D01*
X152603Y133208D01*
X152961Y134073D01*
X153083Y135000D01*
X152961Y135927D01*
X152603Y136792D01*
X152034Y137534D01*
X151292Y138103D01*
X150427Y138461D01*
X149500Y138583D01*
D02*
G37*
G36*
X139500D02*
X138573Y138461D01*
X137708Y138103D01*
X136966Y137534D01*
X136397Y136792D01*
X136039Y135927D01*
X135917Y135000D01*
X136039Y134073D01*
X136397Y133208D01*
X136966Y132466D01*
X137708Y131897D01*
X138573Y131539D01*
X139500Y131417D01*
X140427Y131539D01*
X141292Y131897D01*
X142034Y132466D01*
X142603Y133208D01*
X142961Y134073D01*
X143083Y135000D01*
X142961Y135927D01*
X142603Y136792D01*
X142034Y137534D01*
X141292Y138103D01*
X140427Y138461D01*
X139500Y138583D01*
D02*
G37*
%LPD*%
G36*
X212039Y295052D02*
Y286227D01*
X211577Y286036D01*
X208622Y288992D01*
Y295724D01*
X209014Y295986D01*
X209478Y296681D01*
X209529Y296938D01*
X210008Y297083D01*
X212039Y295052D01*
D02*
G37*
G36*
X236785Y278345D02*
X236728Y277705D01*
X236468Y277532D01*
X236206Y277139D01*
X234965D01*
X234536Y277054D01*
X234172Y276811D01*
X234172Y276811D01*
X233883Y276521D01*
X220537D01*
X220127Y277022D01*
X220193Y277354D01*
X220030Y278173D01*
X219824Y278481D01*
X220091Y278981D01*
X220485D01*
X220856Y279055D01*
X221170Y279265D01*
X221386Y279481D01*
X235649D01*
X236785Y278345D01*
D02*
G37*
G36*
X236468Y274504D02*
X237163Y274039D01*
X237982Y273877D01*
X238598Y273999D01*
X239079Y273748D01*
X239152Y273672D01*
X239171Y273541D01*
X236094Y270464D01*
X236073Y270461D01*
X235208Y270103D01*
X234466Y269534D01*
X233897Y268792D01*
X233539Y267927D01*
X233434Y267128D01*
X232969Y266886D01*
X226096Y273759D01*
X226066Y273779D01*
X226218Y274278D01*
X234347D01*
X234347Y274278D01*
X234776Y274364D01*
X235140Y274607D01*
X235429Y274896D01*
X236206D01*
X236468Y274504D01*
D02*
G37*
D13*
X197750Y289073D02*
Y291427D01*
X206423Y300100D02*
X208577D01*
X197750Y291427D02*
X206423Y300100D01*
X267670Y257000D02*
X274732Y249938D01*
X196400Y243923D02*
Y245859D01*
X196617Y248617D02*
X197000Y249000D01*
X196617Y246076D02*
Y248617D01*
X196400Y245859D02*
X196617Y246076D01*
X196400Y243923D02*
X201774Y238549D01*
Y222495D02*
Y238549D01*
X185400Y253310D02*
Y255077D01*
X171653Y238847D02*
X181095Y248288D01*
X182473Y253973D02*
Y254060D01*
X183550Y251460D02*
X185400Y253310D01*
X178372Y249872D02*
X182473Y253973D01*
X183336Y251460D02*
X183550D01*
X181095Y249219D02*
X183336Y251460D01*
X181095Y248288D02*
Y249219D01*
X219767Y275400D02*
X234347D01*
X234965Y276018D02*
X237982D01*
X234347Y275400D02*
X234965Y276018D01*
X145900Y280400D02*
X189077D01*
X197750Y289073D01*
X139500Y274000D02*
X145900Y280400D01*
X176500Y285000D02*
X181073D01*
X182923Y283150D01*
X187632D01*
X208577Y300100D02*
X213161Y295516D01*
X201774Y222495D02*
X216174Y208095D01*
Y203826D02*
X219000Y201000D01*
X216174Y203826D02*
Y208095D01*
X176372Y249872D02*
X178372D01*
X185400Y255077D02*
X197323Y267000D01*
X176000Y249500D02*
X176372Y249872D01*
X274732Y242213D02*
Y249938D01*
X274426Y238963D02*
Y241907D01*
X274732Y242213D01*
X203838Y269161D02*
X206016D01*
X197323Y267000D02*
X201213D01*
X206016Y269161D02*
X207518Y267659D01*
X201652Y266561D02*
X204713D01*
X193759Y267000D02*
X195659Y268900D01*
X203577D02*
X203838Y269161D01*
X201213Y267000D02*
X201652Y266561D01*
X195659Y268900D02*
X203577D01*
X212659Y267659D02*
X213000Y268000D01*
X207518Y267659D02*
X212659D01*
X240500Y206500D02*
Y217500D01*
X221000Y237000D02*
X240500Y217500D01*
X223100Y243752D02*
Y257900D01*
X222301Y242953D02*
X223100Y243752D01*
X213000Y268000D02*
X223100Y257900D01*
X222301Y239301D02*
Y242953D01*
X221500Y238500D02*
X222301Y239301D01*
X215452Y275458D02*
Y280332D01*
X213161Y282623D02*
X215452Y280332D01*
X211253Y282268D02*
X213852Y279669D01*
Y274795D02*
Y279669D01*
Y274795D02*
X215681Y272966D01*
X213161Y282623D02*
Y295516D01*
X215452Y275458D02*
X216344Y274566D01*
X211253Y282268D02*
Y284775D01*
X215681Y272966D02*
X225303D01*
X207500Y288527D02*
X211253Y284775D01*
X184000Y267000D02*
X193759D01*
X216344Y274566D02*
X218933D01*
X219767Y275400D01*
X207500Y288527D02*
Y297500D01*
X225303Y272966D02*
X241268Y257000D01*
X260500D01*
X267670D01*
D63*
X240432Y273432D02*
Y277055D01*
X238696Y278750D02*
X238737Y278791D01*
X237750Y278750D02*
X238696D01*
X238756Y278791D02*
X240450Y280485D01*
X238737Y278791D02*
X238756D01*
X238896Y278591D02*
X240432Y277055D01*
X236050Y280450D02*
X237750Y278750D01*
X238896Y278591D02*
Y278591D01*
X220485Y279950D02*
X220985Y280450D01*
X215761Y283078D02*
Y283700D01*
X217191Y280644D02*
Y281647D01*
X217884Y279950D02*
X220485D01*
X215761Y283078D02*
X217191Y281647D01*
Y280644D02*
X217884Y279950D01*
X235250Y265250D02*
X235500Y265000D01*
X236500Y269500D02*
X240432Y273432D01*
X220985Y280450D02*
X236050D01*
X237097Y296543D02*
X240450Y293190D01*
Y280485D02*
Y293190D01*
X237097Y296543D02*
Y311597D01*
X281000Y245500D02*
Y245753D01*
X237097Y311597D02*
X241000Y315500D01*
D70*
X248500Y268500D02*
D03*
X118500Y241500D02*
D03*
X221000Y237000D02*
D03*
X219000Y201000D02*
D03*
X139500Y274000D02*
D03*
X241000Y315500D02*
D03*
X117000Y149000D02*
D03*
X237000Y267000D02*
D03*
D71*
X161000Y305500D02*
D03*
D72*
X189000Y288500D02*
D03*
X282500Y226000D02*
D03*
X197000Y249000D02*
D03*
X192952Y252306D02*
D03*
X199442Y244558D02*
D03*
X182473Y254060D02*
D03*
X237982Y276018D02*
D03*
X148000Y289500D02*
D03*
X187632Y283150D02*
D03*
X235000Y149500D02*
D03*
X130800Y238500D02*
D03*
X215761Y283700D02*
D03*
X207500Y297500D02*
D03*
X213000Y268000D02*
D03*
X202500Y271500D02*
D03*
X204713Y266561D02*
D03*
X240500Y206500D02*
D03*
X127000Y262500D02*
D03*
X145500Y260500D02*
D03*
X184000Y267000D02*
D03*
X171653Y238847D02*
D03*
X167500Y199000D02*
D03*
X176000Y249500D02*
D03*
D73*
X228550Y253084D02*
D03*
X248000Y251000D02*
D03*
X194000Y151500D02*
D03*
X227592Y293593D02*
D03*
X149000Y310000D02*
D03*
X260500Y257000D02*
D03*
D74*
X285000Y213000D02*
D03*
X184518Y249319D02*
D03*
X163000Y217000D02*
D03*
X176500Y285000D02*
D03*
X274426Y238963D02*
D03*
X281000Y245500D02*
D03*
M02*
