G04*
G04 #@! TF.GenerationSoftware,Altium Limited,Altium Designer,22.10.1 (41)*
G04*
G04 Layer_Physical_Order=4*
G04 Layer_Color=16711680*
%FSLAX25Y25*%
%MOIN*%
G70*
G04*
G04 #@! TF.SameCoordinates,AFA84DA5-00AA-44F6-A921-FAAB14C792BC*
G04*
G04*
G04 #@! TF.FilePolarity,Positive*
G04*
G01*
G75*
%ADD13C,0.01000*%
%ADD23R,0.03150X0.03543*%
%ADD54R,0.03937X0.03150*%
%ADD55R,0.03740X0.03740*%
%ADD61R,0.03740X0.03740*%
%ADD63C,0.00700*%
%ADD64C,0.02000*%
%ADD66C,0.02500*%
%ADD69R,0.05906X0.05906*%
%ADD70C,0.05906*%
%ADD71R,0.05906X0.05906*%
%ADD72C,0.03000*%
%ADD73C,0.05000*%
%ADD74C,0.02500*%
%ADD75R,0.03150X0.03937*%
%ADD76R,0.01772X0.03740*%
%ADD77R,0.06693X0.03937*%
%ADD78R,0.17126X0.13583*%
%ADD79R,0.04758X0.03985*%
%ADD80R,0.03543X0.01968*%
%ADD81R,0.04469X0.04182*%
%ADD82R,0.03347X0.02953*%
D13*
X240508Y223039D02*
X240547Y223000D01*
X197000Y296959D02*
Y297500D01*
X196000Y295959D02*
X197000Y296959D01*
X196000Y292000D02*
Y295959D01*
Y292000D02*
X196539Y291461D01*
X264007Y320088D02*
X265595Y318500D01*
X268531Y319969D02*
X270000Y318500D01*
X198500Y273039D02*
X199870Y271669D01*
X118500Y290673D02*
X120953Y288220D01*
X265595Y318500D02*
X270000D01*
X291433Y252449D02*
X292902Y250980D01*
X266500Y271012D02*
X267370Y271882D01*
X267220Y294480D02*
X268598D01*
X180500Y229500D02*
X181709D01*
X289000Y321500D02*
X289287Y321213D01*
X231500Y285500D02*
Y289000D01*
X268000Y293882D02*
X268598Y294480D01*
X295780Y317980D02*
X297248Y316512D01*
X292902Y250980D02*
X294280D01*
X199870Y270453D02*
Y271669D01*
X188000Y235791D02*
Y244854D01*
X289287Y321213D02*
X290712D01*
X292902Y268098D02*
Y272480D01*
X288000Y253000D02*
X288406D01*
X231500Y289000D02*
X235500Y293000D01*
X264488Y297213D02*
X267220Y294480D01*
X139000Y280500D02*
X149000Y270500D01*
X267370Y271882D02*
X267500D01*
X297248Y315712D02*
X301000Y311961D01*
X199870Y270453D02*
X201423Y268900D01*
X178500Y227500D02*
X180500Y229500D01*
X181709D02*
X188000Y235791D01*
X268079Y251000D02*
X268098Y250980D01*
X288957Y252449D02*
X291433D01*
X263287Y297213D02*
X264488D01*
X263000Y297500D02*
X263287Y297213D01*
X293425Y318500D02*
X294803D01*
X294780Y294480D02*
X295748Y293512D01*
X292902Y272480D02*
X294280D01*
X201423Y268900D02*
X203577D01*
X205177Y270500D01*
X297248Y315712D02*
Y316512D01*
X295748Y293512D02*
X296248Y293012D01*
X196539Y285000D02*
Y291461D01*
X290712Y321213D02*
X293425Y318500D01*
X288406Y253000D02*
X288957Y252449D01*
X205177Y270500D02*
Y273677D01*
X161630Y226130D02*
X163000Y227500D01*
X120953Y283500D02*
Y288220D01*
X294280Y250980D02*
X295748Y249512D01*
X292902Y268098D02*
X293000Y268000D01*
X205177Y273677D02*
X205500Y274000D01*
X118500Y290673D02*
Y292000D01*
X139000Y280500D02*
Y281000D01*
X267500Y271882D02*
X268098Y272480D01*
X260500Y257000D02*
X267579D01*
X268098Y257520D01*
X292902D01*
X285175Y207825D02*
X286594Y206406D01*
X285000Y213000D02*
X285047Y213047D01*
X282500Y226000D02*
X283686Y224814D01*
X285425D01*
X286500Y225889D02*
Y226000D01*
X285425Y224814D02*
X286500Y225889D01*
X203500Y244940D02*
Y252000D01*
X186659Y247825D02*
X192148D01*
X198923Y254600D02*
X204577D01*
X193900Y232423D02*
Y235340D01*
X192148Y247825D02*
X198923Y254600D01*
X193900Y235340D02*
X203500Y244940D01*
X204403Y233097D02*
X209188D01*
X214305Y238214D02*
Y245383D01*
X209188Y233097D02*
X214305Y238214D01*
X183386Y247781D02*
X184518Y248913D01*
X183014Y254060D02*
X184454Y255500D01*
X184500D01*
X184518Y248913D02*
Y249319D01*
X183386Y245240D02*
Y247781D01*
X182473Y254060D02*
X183014D01*
X183000Y244854D02*
X183386Y245240D01*
X231638Y249484D02*
X231654Y249500D01*
X214138Y256200D02*
X220854Y249484D01*
X231654Y249500D02*
X238802D01*
X220854Y249484D02*
X231638D01*
X166632Y275650D02*
X166891D01*
X176241Y285000D01*
X148000Y285500D02*
Y289500D01*
X183590Y241884D02*
X184342D01*
X181850Y240145D02*
X183590Y241884D01*
X181850Y239527D02*
Y240145D01*
X178221Y238150D02*
X180473D01*
X178142Y238228D02*
X178221Y238150D01*
X180473D02*
X181850Y239527D01*
X185500Y246666D02*
X186659Y247825D01*
X173386Y241742D02*
X176900Y238228D01*
X178142D01*
X185500Y243043D02*
Y246666D01*
X185600Y256600D02*
X189077D01*
X189477Y256200D01*
X214138D01*
X151868Y147400D02*
X192832D01*
X204731Y135500D01*
X139447Y159821D02*
X151868Y147400D01*
X176241Y285000D02*
X176500D01*
X148157Y250095D02*
X148500Y249752D01*
Y245500D02*
Y249752D01*
X148157Y250095D02*
Y253002D01*
X207177Y252000D02*
X213500D01*
X204577Y254600D02*
X207177Y252000D01*
X174500Y267000D02*
X184000D01*
X165000Y254500D02*
Y257500D01*
X174500Y267000D01*
X163000Y288000D02*
X169231D01*
X183182Y301950D01*
X185950D01*
X136400Y277197D02*
Y282077D01*
X137923Y283600D02*
X142400D01*
X148000Y278000D01*
X136400Y282077D02*
X137923Y283600D01*
X139500Y274000D02*
Y274097D01*
X136400Y277197D02*
X139500Y274097D01*
X249299Y257650D02*
X259372Y247578D01*
X218500Y271000D02*
X231850Y257650D01*
X249299D01*
X211252Y274748D02*
Y276248D01*
X211000Y276500D02*
X211252Y276248D01*
X179046Y200046D02*
Y210880D01*
X177068Y198068D02*
X179046Y200046D01*
X177068Y197970D02*
Y198068D01*
X173062Y194885D02*
X173984D01*
X177068Y197970D01*
X211252Y274748D02*
X215000Y271000D01*
X218500D01*
X268098Y232902D02*
Y236020D01*
X276100Y205341D02*
Y224900D01*
X268098Y232902D02*
X276100Y224900D01*
X292902Y236020D02*
X293612D01*
X295080Y234551D01*
Y203543D02*
Y234551D01*
X189673Y305500D02*
X191000D01*
X188274Y304101D02*
X189673Y305500D01*
X188101Y304101D02*
X188274D01*
X185950Y301950D02*
X188101Y304101D01*
X218939Y235352D02*
Y237000D01*
X174083Y219047D02*
X174083D01*
X174043D02*
X174083D01*
X161430Y232300D02*
X168030Y238900D01*
X155700Y232300D02*
X161430D01*
X168030Y238900D02*
Y238900D01*
X173386Y241742D02*
Y243484D01*
X178386Y246596D02*
X178600Y246810D01*
X178000Y244854D02*
X178386Y245240D01*
Y246596D01*
X178600Y246810D02*
Y250577D01*
X172912Y252100D02*
X177077D01*
X170906Y254106D02*
X172912Y252100D01*
X184500Y255500D02*
X185600Y256600D01*
X179046Y210880D02*
X180100Y211934D01*
Y216879D01*
X184830Y221609D01*
X256133Y245953D02*
X256500D01*
X255649Y246437D02*
X256133Y245953D01*
X248000Y251000D02*
X249082D01*
X168000Y188000D02*
X179000Y177000D01*
X281133Y193500D02*
X285037D01*
X280547Y194086D02*
Y200500D01*
Y194086D02*
X281133Y193500D01*
X285037D02*
X295080Y203543D01*
X280547Y200500D02*
Y200894D01*
X272993Y191500D02*
X288500D01*
X279807Y207287D02*
Y233582D01*
X274426Y238963D02*
X279807Y233582D01*
X123953Y251500D02*
X129453Y257000D01*
X139000D01*
X118500Y251500D02*
X123953D01*
X148000Y217796D02*
X160674Y230470D01*
X163277D01*
X148000Y182000D02*
Y217796D01*
X145474Y242474D02*
X148500Y245500D01*
X143119Y177119D02*
X148000Y182000D01*
X145474Y224883D02*
Y242474D01*
X139447Y218856D02*
X145474Y224883D01*
X171653Y238847D02*
X171653D01*
X163277Y230470D02*
X171653Y238847D01*
X139447Y159821D02*
Y218856D01*
X168000Y189823D02*
X173062Y194885D01*
X168000Y188000D02*
Y189823D01*
X173000Y213161D02*
Y214146D01*
X174000Y205906D02*
Y212161D01*
X173000Y213161D02*
X174000Y212161D01*
X170906Y254106D02*
Y254500D01*
X177077Y252100D02*
X178600Y250577D01*
X218939Y235352D02*
X219000Y235290D01*
X202440Y271560D02*
X202500Y271500D01*
X202440Y271560D02*
Y276883D01*
X259372Y246628D02*
Y247578D01*
Y246628D02*
X267097Y238902D01*
Y237021D02*
Y238902D01*
Y237021D02*
X268098Y236020D01*
X140370Y255630D02*
X152767D01*
X204731Y135500D02*
X212000D01*
X185493Y220009D02*
X190181D01*
X184830Y221609D02*
X189519D01*
X183000Y217516D02*
X185493Y220009D01*
X183000Y214146D02*
Y217516D01*
X151000Y237000D02*
X155700Y232300D01*
X190181Y220009D02*
X196500Y226327D01*
Y233500D01*
X194900Y226990D02*
Y231423D01*
X189519Y221609D02*
X194900Y226990D01*
X184342Y241884D02*
X185500Y243043D01*
X213500Y252000D02*
X220500Y245000D01*
X173000Y243870D02*
X173386Y243484D01*
X159400Y246610D02*
Y248997D01*
Y246610D02*
X159986Y246024D01*
X164377D01*
X152767Y255630D02*
X159400Y248997D01*
X167853Y249500D02*
X176000D01*
X164377Y246024D02*
X167853Y249500D01*
X168030Y238900D02*
X173000Y243870D01*
X246453Y202000D02*
X262493D01*
X272993Y191500D01*
X173000Y243870D02*
Y244854D01*
X172606Y199000D02*
X173606Y200000D01*
X167500Y199000D02*
X172606D01*
X226579Y285500D02*
X227592Y286514D01*
Y293593D01*
X201900Y277423D02*
Y284561D01*
X201461Y285000D02*
X201900Y284561D01*
Y277423D02*
X202440Y276883D01*
X199578D02*
X202440D01*
X193900Y232423D02*
X194900Y231423D01*
X198500Y277961D02*
X199578Y276883D01*
X247500Y238000D02*
X248000Y238500D01*
X139000Y257000D02*
X140370Y255630D01*
X262034Y235214D02*
X273500Y223748D01*
Y220500D02*
Y223748D01*
X292902Y257520D02*
X293961Y258579D01*
X259772Y240047D02*
X262034Y237785D01*
Y235214D02*
Y237785D01*
X276100Y205341D02*
X280547Y200894D01*
X263500Y206000D02*
Y209028D01*
X254111Y222111D02*
Y230930D01*
X252600Y232441D02*
X254111Y230930D01*
X249528Y223000D02*
X263500Y209028D01*
X246453Y223000D02*
X249528D01*
X257000Y211500D02*
X260500Y208000D01*
X246500Y211500D02*
X257000D01*
X159500Y135000D02*
Y136297D01*
X256500Y240047D02*
X259772D01*
X293882Y237000D02*
X301000D01*
X292902Y236020D02*
X293882Y237000D01*
X293961Y258579D02*
X300500D01*
X230500Y211937D02*
Y223039D01*
X230016Y211453D02*
X230500Y211937D01*
X230000Y211453D02*
X230016D01*
X118500Y261500D02*
X124500Y267500D01*
X127500D01*
X247941Y232441D02*
X252600D01*
X247500Y232882D02*
X247941Y232441D01*
D23*
X115047Y283500D02*
D03*
X120953D02*
D03*
D54*
X174000Y205906D02*
D03*
Y200000D02*
D03*
D55*
X139000Y257000D02*
D03*
Y262906D02*
D03*
X230500Y223039D02*
D03*
Y227961D02*
D03*
X148000Y278000D02*
D03*
Y283906D02*
D03*
X149000Y265579D02*
D03*
Y270500D02*
D03*
X301000Y237000D02*
D03*
Y241921D02*
D03*
X198500Y277961D02*
D03*
Y273039D02*
D03*
X129000Y244539D02*
D03*
Y249461D02*
D03*
X300500Y258579D02*
D03*
Y263500D02*
D03*
X163000Y227500D02*
D03*
Y222579D02*
D03*
X300500Y286961D02*
D03*
Y282039D02*
D03*
X301000Y311961D02*
D03*
Y307039D02*
D03*
D61*
X201461Y285000D02*
D03*
X196539D02*
D03*
X231500Y285500D02*
D03*
X226579D02*
D03*
D63*
X232033Y242371D02*
X232358Y242819D01*
X208402Y217795D02*
X208402Y217795D01*
X232033Y242371D02*
X231248Y241767D01*
X230640Y240986D01*
X230249Y240077D01*
X230099Y239099D01*
X185453Y253366D02*
X189511D01*
X199850Y236850D02*
X208000Y245000D01*
Y245100D01*
X199850Y225762D02*
Y236850D01*
X181164Y249077D02*
X185453Y253366D01*
X181164Y242164D02*
Y249077D01*
X156886Y159976D02*
Y209894D01*
X156775Y159866D02*
X156886Y159976D01*
Y209894D02*
X156996Y210004D01*
X179500Y240500D02*
X181164Y242164D01*
X199850Y225762D02*
X204619Y220993D01*
X184500Y280500D02*
Y286500D01*
X164000Y260000D02*
X184500Y280500D01*
X216389Y169111D02*
X218854D01*
X243166Y144799D01*
X252000Y135500D02*
Y135534D01*
X243166Y144368D02*
X252000Y135534D01*
X243166Y144368D02*
Y144799D01*
X184000Y201500D02*
X216389Y169111D01*
X184000Y300500D02*
X201035D01*
X160996Y271496D02*
Y277496D01*
X184000Y300500D01*
X128500Y277000D02*
X138025Y286525D01*
Y303904D01*
X243079Y274500D02*
X262201D01*
X239079Y278500D02*
X243079Y274500D01*
X262201D02*
X262403Y274702D01*
X297838Y282579D02*
X301000D01*
X257050Y255571D02*
Y261050D01*
X262403Y266403D02*
Y274702D01*
X257050Y261050D02*
X262403Y266403D01*
X213702Y276400D02*
Y279546D01*
X206193Y283895D02*
X211191D01*
X212205Y281042D02*
X213702Y279546D01*
X211191Y283895D02*
X215002Y280084D01*
X209347Y281042D02*
X212205D01*
X215002Y276939D02*
Y280084D01*
X227943Y274904D02*
X231539Y278500D01*
X217037Y274904D02*
X227943D01*
X213702Y276400D02*
X216498Y273604D01*
X218052Y277354D02*
Y277797D01*
X221096Y273604D02*
X234700Y260000D01*
X216498Y273604D02*
X221096D01*
X215002Y276939D02*
X217037Y274904D01*
X218052Y277797D02*
X220225Y279970D01*
X232892D02*
X232922Y280000D01*
X248500D01*
X231539Y278500D02*
X239079D01*
X220225Y279970D02*
X232892D01*
X233764Y282680D02*
X234320Y283236D01*
X223215Y282680D02*
X233764D01*
X234700Y260000D02*
X234700D01*
X275693Y241694D02*
X289500Y227887D01*
X290953Y217000D02*
Y217394D01*
X289500Y218847D02*
X290953Y217394D01*
X289500Y218847D02*
Y227887D01*
X258245Y250755D02*
X267306Y241694D01*
X275693D01*
X281000Y241263D02*
Y245500D01*
Y241263D02*
X292000Y230263D01*
Y226406D02*
Y230263D01*
Y226406D02*
X292406Y226000D01*
X240500Y202047D02*
X240547Y202000D01*
X240500Y202047D02*
Y206500D01*
X174500Y185000D02*
X192500D01*
X209656Y167844D02*
X211656D01*
X192500Y185000D02*
X209656Y167844D01*
X211656D02*
X212000Y167500D01*
X231422Y201078D02*
Y204913D01*
Y201078D02*
X235250Y197250D01*
X219000Y283926D02*
Y291750D01*
Y283500D02*
Y283926D01*
X234000Y310378D02*
Y311000D01*
Y310378D02*
X234903Y309475D01*
Y303883D02*
Y309475D01*
X160000Y270500D02*
X160996Y271496D01*
X208000Y214500D02*
X208197D01*
X188354D02*
X202094D01*
X188000Y214146D02*
X188354Y214500D01*
X207000Y278900D02*
X207205D01*
X209347Y281042D01*
X186000Y269456D02*
X186500Y268956D01*
X186000Y269456D02*
Y273000D01*
X186500Y266035D02*
Y268956D01*
X258245Y250755D02*
Y254376D01*
X196000Y201500D02*
X204619Y210119D01*
Y220993D01*
X230787Y205547D02*
X231422Y204913D01*
X227835Y209519D02*
X232611D01*
X234593Y211500D01*
X208402Y217795D02*
X208607Y218000D01*
X224476Y212878D02*
X227835Y209519D01*
X208607Y218000D02*
X209000D01*
X221117Y216403D02*
X224476Y213044D01*
X234593Y211500D02*
X240594D01*
X216122Y216403D02*
X221117D01*
X209000Y218000D02*
X230099Y239099D01*
X224476Y212878D02*
Y213044D01*
X241551Y158570D02*
X260603D01*
X236019Y164101D02*
X241551Y158570D01*
X170500Y189000D02*
X174500Y185000D01*
X215761Y283083D02*
X217606Y281239D01*
X219198Y283698D02*
X219361D01*
X219000Y283500D02*
X219198Y283698D01*
X211451Y291475D02*
X219000Y283926D01*
X219361Y283500D02*
X220500D01*
X215761Y283083D02*
Y283700D01*
X210060Y291475D02*
X211451D01*
X219687Y281270D02*
X221805D01*
X217606Y281239D02*
X219655D01*
X219687Y281270D01*
X221805D02*
X223215Y282680D01*
X208197Y214500D02*
Y217590D01*
X232358Y242819D02*
X232375Y242895D01*
Y245375D01*
X208197Y217590D02*
X208402Y217795D01*
X232375Y245375D02*
X232478Y245479D01*
X167525Y256006D02*
X172514Y260996D01*
X181460D01*
X186500Y266035D01*
X162000Y248624D02*
X162124D01*
X164039Y250539D02*
X165926D01*
X167525Y252138D02*
Y256006D01*
X162124Y248624D02*
X164039Y250539D01*
X165926D02*
X167525Y252138D01*
X234320Y283236D02*
Y283285D01*
X238950Y287915D01*
Y299953D01*
X208000Y198770D02*
Y214106D01*
X208197Y214500D02*
X214219D01*
X216122Y216403D01*
X219000Y291750D02*
X224903Y297653D01*
X228672D01*
X234903Y303883D01*
X201035Y300500D02*
X210060Y291475D01*
X171000Y296710D02*
Y305500D01*
Y296710D02*
X171210Y296500D01*
X152571Y313450D02*
X156618Y309403D01*
X138025Y303904D02*
X147571Y313450D01*
X152571D01*
X156618Y309403D02*
X160422D01*
X182750Y202000D02*
X183500D01*
X217097Y311597D02*
X221000Y315500D01*
X199383Y311597D02*
X217097D01*
X196000Y314981D02*
X199383Y311597D01*
X196000Y314981D02*
Y316019D01*
X169383Y319403D02*
X192617D01*
X196000Y316019D01*
X164903Y313883D02*
Y314922D01*
X169383Y319403D01*
X160422Y309403D02*
X164903Y313883D01*
X221000Y305500D02*
X231000D01*
X257050Y255571D02*
X258245Y254376D01*
X267220Y279520D02*
X268598D01*
X262403Y274702D02*
X267220Y279520D01*
X268598D02*
X293402D01*
X269598Y303020D02*
X293024D01*
X288296Y300296D02*
X290300D01*
X288000Y300000D02*
X288296Y300296D01*
X293024Y303020D02*
X294402D01*
X290300Y300296D02*
X293024Y303020D01*
X293402Y279520D02*
X294780D01*
X230000Y205547D02*
X230787D01*
X295998Y304616D02*
X298577D01*
X301000Y307039D01*
X294402Y303020D02*
X295998Y304616D01*
X294780Y279520D02*
X297838Y282579D01*
X237097Y301806D02*
Y311597D01*
Y301806D02*
X238950Y299953D01*
X237097Y311597D02*
X241000Y315500D01*
D64*
X230500Y223039D02*
X240508D01*
X240547Y223000D02*
Y243547D01*
X230500Y227961D02*
X233039Y230500D01*
X293402Y294480D02*
X294780D01*
X299889Y264111D02*
X300500Y263500D01*
X233039Y230500D02*
X235500D01*
X299889Y264111D02*
Y266871D01*
X266500Y266000D02*
Y271012D01*
X134230Y249730D02*
X134500Y250000D01*
X293402Y294480D02*
X293500Y294382D01*
X262000Y251000D02*
X268079D01*
X295748Y247173D02*
Y249512D01*
X299630Y287831D02*
X300500Y286961D01*
X160130Y226130D02*
X161630D01*
X295748Y293252D02*
X299630Y289370D01*
X163000Y227500D02*
X178500D01*
X156500Y222500D02*
X160130Y226130D01*
X295748Y247173D02*
X301000Y241921D01*
X293500Y290500D02*
Y294382D01*
X129270Y249730D02*
X134230D01*
X295748Y293252D02*
Y293512D01*
X294280Y272480D02*
X299889Y266871D01*
X129000Y249461D02*
X129270Y249730D01*
X299630Y287831D02*
Y289370D01*
X285175Y207825D02*
Y213000D01*
X286594Y199500D02*
Y206406D01*
X285047Y213047D02*
Y217000D01*
X163000D02*
Y222579D01*
X240547Y243547D02*
X248000Y251000D01*
X178000Y214146D02*
Y215090D01*
X174043Y219047D02*
X178000Y215090D01*
X172021Y221109D02*
X174083Y219047D01*
X171274Y221109D02*
X172021D01*
X163000Y222579D02*
X169804D01*
X171274Y221109D01*
X248000Y251000D02*
X249500Y249500D01*
X254000D01*
X255649Y247851D01*
Y246437D02*
Y247851D01*
X248000Y238500D02*
Y251000D01*
X127000Y262500D02*
X138594D01*
X139000Y262906D01*
X145691Y260691D02*
Y262270D01*
X145500Y260500D02*
X145691Y260691D01*
Y262270D02*
X149000Y265579D01*
X118500Y241500D02*
X125961D01*
X129000Y244539D01*
X115047Y283500D02*
Y288953D01*
X113719Y290281D02*
Y297219D01*
Y290281D02*
X115047Y288953D01*
X113719Y297219D02*
X118500Y302000D01*
D66*
X164646Y296500D02*
X164790D01*
X162349Y298797D02*
Y304151D01*
X161000Y305500D02*
X162349Y304151D01*
Y298797D02*
X164646Y296500D01*
X149000Y310000D02*
X153500Y305500D01*
X161000D01*
X201461Y291258D02*
X202203Y292000D01*
X202314D01*
X201461Y285000D02*
Y291258D01*
D69*
X248500Y288500D02*
D03*
X118500Y231500D02*
D03*
Y302000D02*
D03*
D70*
X258500Y288500D02*
D03*
X248500Y278500D02*
D03*
X258500D02*
D03*
X248500Y268500D02*
D03*
X258500D02*
D03*
X118500Y261500D02*
D03*
Y251500D02*
D03*
Y241500D02*
D03*
X195500Y200000D02*
D03*
X178500Y176500D02*
D03*
X219500Y212500D02*
D03*
X221000Y237000D02*
D03*
X151500Y296000D02*
D03*
X238500Y249500D02*
D03*
X156996Y210004D02*
D03*
X284500Y137500D02*
D03*
X207500Y200500D02*
D03*
X252036Y135012D02*
D03*
X242036D02*
D03*
X232036D02*
D03*
X222036D02*
D03*
X212036D02*
D03*
X219000Y201000D02*
D03*
X139500Y135000D02*
D03*
X149500D02*
D03*
X159500D02*
D03*
X169500D02*
D03*
X179500D02*
D03*
X189500D02*
D03*
X199500D02*
D03*
X145000Y179000D02*
D03*
X160000Y270500D02*
D03*
X139500Y274000D02*
D03*
X118500Y292000D02*
D03*
X251000Y315500D02*
D03*
X241000D02*
D03*
X231000D02*
D03*
X221000D02*
D03*
X211000D02*
D03*
X201000D02*
D03*
X191000D02*
D03*
X181000D02*
D03*
X171000D02*
D03*
X161000D02*
D03*
X251000Y305500D02*
D03*
X241000D02*
D03*
X231000D02*
D03*
X221000D02*
D03*
X211000D02*
D03*
X201000D02*
D03*
X191000D02*
D03*
X181000D02*
D03*
X171000D02*
D03*
X128500Y277000D02*
D03*
X183500Y202000D02*
D03*
X117000Y149000D02*
D03*
X237000Y267000D02*
D03*
X163000Y288000D02*
D03*
X151000Y237000D02*
D03*
X234000Y239000D02*
D03*
D71*
X262036Y135012D02*
D03*
X129500Y135000D02*
D03*
X161000Y305500D02*
D03*
D72*
X191300Y232500D02*
D03*
X189000Y288500D02*
D03*
X197000Y297500D02*
D03*
X219000Y266500D02*
D03*
X172000Y284500D02*
D03*
X205500Y274000D02*
D03*
X156500Y222500D02*
D03*
X266500Y266000D02*
D03*
X262000Y251000D02*
D03*
X296342Y196842D02*
D03*
X176951Y256010D02*
D03*
X139000Y281000D02*
D03*
X282500Y226000D02*
D03*
X189511Y253366D02*
D03*
X197000Y249000D02*
D03*
X192952Y252306D02*
D03*
X199442Y244558D02*
D03*
X208000Y245100D02*
D03*
X182473Y254060D02*
D03*
X237982Y276018D02*
D03*
X148000Y289500D02*
D03*
X184500Y239000D02*
D03*
X187632Y283150D02*
D03*
X204403Y233097D02*
D03*
X203500Y252000D02*
D03*
X235000Y149500D02*
D03*
X130800Y238500D02*
D03*
X211000Y276500D02*
D03*
X232478Y245479D02*
D03*
X215761Y283700D02*
D03*
X206193Y283895D02*
D03*
X207000Y278900D02*
D03*
X219361Y283698D02*
D03*
X207500Y297500D02*
D03*
X186000Y273000D02*
D03*
X218052Y277354D02*
D03*
X214305Y245383D02*
D03*
X213000Y268000D02*
D03*
X202500Y271500D02*
D03*
X204713Y266561D02*
D03*
X240500Y206500D02*
D03*
X235250Y197250D02*
D03*
X234000Y311000D02*
D03*
X127000Y262500D02*
D03*
X145500Y260500D02*
D03*
X220500Y245000D02*
D03*
X184000Y267000D02*
D03*
X162000Y248624D02*
D03*
X171653Y238847D02*
D03*
X288500Y191500D02*
D03*
X167500Y199000D02*
D03*
X176000Y249500D02*
D03*
X273500Y220500D02*
D03*
X254111Y222111D02*
D03*
X260500Y208000D02*
D03*
X263500Y206000D02*
D03*
X196500Y233500D02*
D03*
X127500Y267500D02*
D03*
D73*
X209000Y238000D02*
D03*
X115000Y185000D02*
D03*
X125500Y319500D02*
D03*
X134500Y250000D02*
D03*
X235500Y230500D02*
D03*
Y293000D02*
D03*
X228550Y253084D02*
D03*
X248000Y251000D02*
D03*
X156775Y159866D02*
D03*
X194000Y151500D02*
D03*
X227592Y293593D02*
D03*
X149000Y310000D02*
D03*
X260500Y257000D02*
D03*
D74*
X289000Y321500D02*
D03*
X293500Y290500D02*
D03*
X288000Y253000D02*
D03*
X293000Y268000D02*
D03*
X264007Y320088D02*
D03*
X263000Y297500D02*
D03*
X285000Y213000D02*
D03*
X184518Y249319D02*
D03*
X163000Y217000D02*
D03*
X166632Y275650D02*
D03*
X179500Y240500D02*
D03*
X176500Y285000D02*
D03*
X148157Y253002D02*
D03*
X164000Y260000D02*
D03*
X212000Y167500D02*
D03*
X260603Y158570D02*
D03*
X236019Y164101D02*
D03*
X170500Y189000D02*
D03*
X184500Y286500D02*
D03*
X274426Y238963D02*
D03*
X234700Y260000D02*
D03*
X281000Y245500D02*
D03*
X288000Y300000D02*
D03*
D75*
X208000Y214500D02*
D03*
X202094D02*
D03*
X170906Y254500D02*
D03*
X246453Y202000D02*
D03*
X240547D02*
D03*
X279807Y207287D02*
D03*
X285713D02*
D03*
X165000Y254500D02*
D03*
X240547Y223000D02*
D03*
X246453D02*
D03*
X240594Y211500D02*
D03*
X246500D02*
D03*
X286500Y226000D02*
D03*
X292406D02*
D03*
X286453Y200500D02*
D03*
X280547D02*
D03*
X290953Y217000D02*
D03*
X285047D02*
D03*
D76*
X173000Y214146D02*
D03*
X188000D02*
D03*
X178000Y244854D02*
D03*
X173000D02*
D03*
X183000D02*
D03*
X188000D02*
D03*
X183000Y214146D02*
D03*
X178000D02*
D03*
D77*
X268098Y250980D02*
D03*
X292902D02*
D03*
X268098Y236020D02*
D03*
X292902D02*
D03*
X268098Y272480D02*
D03*
X292902D02*
D03*
X268098Y257520D02*
D03*
X292902D02*
D03*
X293402Y279520D02*
D03*
X268598D02*
D03*
X293402Y294480D02*
D03*
X268598D02*
D03*
X294803Y303539D02*
D03*
X270000D02*
D03*
X294803Y318500D02*
D03*
X270000D02*
D03*
D78*
X180500Y229500D02*
D03*
D79*
X202314Y292000D02*
D03*
X196000D02*
D03*
D80*
X230000Y205547D02*
D03*
Y211453D02*
D03*
X256500Y245953D02*
D03*
Y240047D02*
D03*
D81*
X171210Y296500D02*
D03*
X164790D02*
D03*
D82*
X247500Y238000D02*
D03*
Y232882D02*
D03*
M02*
