G04*
G04 #@! TF.GenerationSoftware,Altium Limited,Altium Designer,22.10.1 (41)*
G04*
G04 Layer_Color=32896*
%FSLAX25Y25*%
%MOIN*%
G70*
G04*
G04 #@! TF.SameCoordinates,AFA84DA5-00AA-44F6-A921-FAAB14C792BC*
G04*
G04*
G04 #@! TF.FilePolarity,Positive*
G04*
G01*
G75*
%ADD10C,0.00787*%
%ADD11C,0.00984*%
%ADD13C,0.01000*%
D10*
X284437Y233657D02*
X287980Y237201D01*
X273020D02*
X276563Y233657D01*
X273020Y249799D02*
X276563Y253343D01*
X284437D02*
X287980Y249799D01*
X290343Y239563D02*
Y247437D01*
X276563Y253343D02*
X284437D01*
X276563Y233657D02*
X284437D01*
X270657Y239563D02*
Y247437D01*
X284437Y255157D02*
X287980Y258701D01*
X273020D02*
X276563Y255157D01*
X273020Y271299D02*
X276563Y274843D01*
X284437D02*
X287980Y271299D01*
X290343Y261063D02*
Y268937D01*
X276563Y274843D02*
X284437D01*
X276563Y255157D02*
X284437D01*
X270657Y261063D02*
Y268937D01*
X271157Y283063D02*
Y290937D01*
X277063Y277157D02*
X284937D01*
X277063Y296843D02*
X284937D01*
X290843Y283063D02*
Y290937D01*
X284937Y296843D02*
X288480Y293299D01*
X273520D02*
X277063Y296843D01*
X273520Y280701D02*
X277063Y277157D01*
X284937D02*
X288480Y280701D01*
X272559Y307083D02*
Y314957D01*
X278465Y301177D02*
X286339D01*
X278465Y320862D02*
X286339D01*
X292244Y307083D02*
Y314957D01*
X286339Y320862D02*
X289882Y317319D01*
X274921D02*
X278465Y320862D01*
X274921Y304720D02*
X278465Y301177D01*
X286339D02*
X289882Y304720D01*
X193621Y288433D02*
X204693D01*
X193621Y295567D02*
X204693D01*
X114654Y280154D02*
X121346D01*
X114654Y286846D02*
X121346D01*
X231870Y208008D02*
Y208992D01*
X228130Y208008D02*
Y208992D01*
X165047Y300240D02*
X170953D01*
X165047Y292760D02*
X170953D01*
X254630Y242508D02*
Y243492D01*
X258370Y242508D02*
Y243492D01*
D11*
X293394Y231886D02*
X292655Y232312D01*
Y231460D01*
X293394Y231886D01*
X170638Y246724D02*
X169900Y247151D01*
Y246298D01*
X170638Y246724D01*
X293394Y253386D02*
X292655Y253812D01*
Y252960D01*
X293394Y253386D01*
X293894Y275386D02*
X293156Y275812D01*
Y274960D01*
X293894Y275386D01*
X295295Y299405D02*
X294557Y299832D01*
Y298979D01*
X295295Y299405D01*
D13*
X141332Y266501D02*
Y270499D01*
X139333D01*
X138666Y269833D01*
Y268500D01*
X139333Y267834D01*
X141332D01*
X139999D02*
X138666Y266501D01*
X137334Y269833D02*
X136667Y270499D01*
X135334D01*
X134668Y269833D01*
Y269166D01*
X135334Y268500D01*
X134668Y267834D01*
Y267167D01*
X135334Y266501D01*
X136667D01*
X137334Y267167D01*
Y267834D01*
X136667Y268500D01*
X137334Y269166D01*
Y269833D01*
X136667Y268500D02*
X135334D01*
X223667Y227666D02*
X223001Y228332D01*
Y229665D01*
X223667Y230332D01*
X226333D01*
X226999Y229665D01*
Y228332D01*
X226333Y227666D01*
X226999Y223667D02*
Y226333D01*
X224334Y223667D01*
X223667D01*
X223001Y224334D01*
Y225666D01*
X223667Y226333D01*
X226999Y219668D02*
Y222334D01*
X224334Y219668D01*
X223667D01*
X223001Y220335D01*
Y221668D01*
X223667Y222334D01*
X302332Y232501D02*
Y236499D01*
X300333D01*
X299666Y235833D01*
Y234500D01*
X300333Y233834D01*
X302332D01*
X300999D02*
X299666Y232501D01*
X295668D02*
X298334D01*
X295668Y235166D01*
Y235833D01*
X296334Y236499D01*
X297667D01*
X298334Y235833D01*
X240002Y219999D02*
Y216001D01*
X242001D01*
X242667Y216667D01*
Y218000D01*
X242001Y218666D01*
X240002D01*
X241335D02*
X242667Y219999D01*
X244000D02*
X245333D01*
X244667D01*
Y216001D01*
X244000Y216667D01*
X247333Y216001D02*
X249998D01*
Y216667D01*
X247333Y219333D01*
Y219999D01*
X153001Y248002D02*
X156999D01*
Y250001D01*
X156333Y250667D01*
X155000D01*
X154333Y250001D01*
Y248002D01*
Y249335D02*
X153001Y250667D01*
Y252000D02*
Y253333D01*
Y252667D01*
X156999D01*
X156333Y252000D01*
Y255333D02*
X156999Y255999D01*
Y257332D01*
X156333Y257998D01*
X155666D01*
X155000Y257332D01*
Y256665D01*
Y257332D01*
X154333Y257998D01*
X153667D01*
X153001Y257332D01*
Y255999D01*
X153667Y255333D01*
X299167Y253666D02*
X298501Y254332D01*
Y255665D01*
X299167Y256332D01*
X299834D01*
X300500Y255665D01*
Y254332D01*
X301166Y253666D01*
X301833D01*
X302499Y254332D01*
Y255665D01*
X301833Y256332D01*
X298501Y252333D02*
X302499D01*
X301166Y251000D01*
X302499Y249667D01*
X298501D01*
Y245668D02*
Y248334D01*
X300500D01*
X299834Y247001D01*
Y246335D01*
X300500Y245668D01*
X301833D01*
X302499Y246335D01*
Y247668D01*
X301833Y248334D01*
X298667Y274166D02*
X298001Y274832D01*
Y276165D01*
X298667Y276832D01*
X299334D01*
X300000Y276165D01*
Y274832D01*
X300666Y274166D01*
X301333D01*
X301999Y274832D01*
Y276165D01*
X301333Y276832D01*
X298001Y272833D02*
X301999D01*
X300666Y271500D01*
X301999Y270167D01*
X298001D01*
X301999Y266835D02*
X298001D01*
X300000Y268834D01*
Y266168D01*
X299167Y298166D02*
X298501Y298832D01*
Y300165D01*
X299167Y300832D01*
X299834D01*
X300500Y300165D01*
Y298832D01*
X301166Y298166D01*
X301833D01*
X302499Y298832D01*
Y300165D01*
X301833Y300832D01*
X298501Y296833D02*
X302499D01*
X301166Y295500D01*
X302499Y294167D01*
X298501D01*
X299167Y292834D02*
X298501Y292168D01*
Y290835D01*
X299167Y290168D01*
X299834D01*
X300500Y290835D01*
Y291501D01*
Y290835D01*
X301166Y290168D01*
X301833D01*
X302499Y290835D01*
Y292168D01*
X301833Y292834D01*
X299069Y315685D02*
X298402Y316352D01*
Y317685D01*
X299069Y318351D01*
X299735D01*
X300402Y317685D01*
Y316352D01*
X301068Y315685D01*
X301734D01*
X302401Y316352D01*
Y317685D01*
X301734Y318351D01*
X298402Y314352D02*
X302401D01*
X301068Y313020D01*
X302401Y311687D01*
X298402D01*
X302401Y307688D02*
Y310354D01*
X299735Y307688D01*
X299069D01*
X298402Y308354D01*
Y309687D01*
X299069Y310354D01*
X166499Y233147D02*
Y234480D01*
Y233814D01*
X162501D01*
Y233147D01*
Y234480D01*
X165833Y239145D02*
X166499Y238479D01*
Y237146D01*
X165833Y236480D01*
X163167D01*
X162501Y237146D01*
Y238479D01*
X163167Y239145D01*
X162501Y243144D02*
Y240478D01*
X165166Y243144D01*
X165833D01*
X166499Y242478D01*
Y241145D01*
X165833Y240478D01*
X240832Y283566D02*
X241499Y282899D01*
Y281566D01*
X240832Y280900D01*
X238166D01*
X237500Y281566D01*
Y282899D01*
X238166Y283566D01*
X241499Y284899D02*
Y287564D01*
X240832D01*
X238166Y284899D01*
X237500D01*
X200167Y268333D02*
X200833Y268999D01*
X202166D01*
X202832Y268333D01*
Y265667D01*
X202166Y265001D01*
X200833D01*
X200167Y265667D01*
X196168Y268999D02*
X197501Y268333D01*
X198834Y267000D01*
Y265667D01*
X198167Y265001D01*
X196834D01*
X196168Y265667D01*
Y266334D01*
X196834Y267000D01*
X198834D01*
X194833Y278334D02*
X195499Y277667D01*
Y276334D01*
X194833Y275668D01*
X192167D01*
X191501Y276334D01*
Y277667D01*
X192167Y278334D01*
X194833Y279666D02*
X195499Y280333D01*
Y281666D01*
X194833Y282332D01*
X194167D01*
X193500Y281666D01*
Y280999D01*
Y281666D01*
X192833Y282332D01*
X192167D01*
X191501Y281666D01*
Y280333D01*
X192167Y279666D01*
X188667Y296166D02*
X188001Y296833D01*
Y298166D01*
X188667Y298832D01*
X191333D01*
X191999Y298166D01*
Y296833D01*
X191333Y296166D01*
X191999Y292168D02*
Y294833D01*
X189333Y292168D01*
X188667D01*
X188001Y292834D01*
Y294167D01*
X188667Y294833D01*
M02*
