M48
;Layer_Color=9474304
;FILE_FORMAT=2:4
INCH,TZ
;TYPE=PLATED
T1F00S00C0.0100
T2F00S00C0.0150
T3F00S00C0.0160
T4F00S00C0.0280
T5F00S00C0.0354
T6F00S00C0.0394
%
T01
X17050Y18900
X16300Y21700
X17950Y24050
X18452Y24932
X16400Y26000
X16663Y27565
X17650Y28500
X18450Y28650
X23470Y26000
X28800Y25300
X28100Y24550
X27443Y23896
X28500Y21300
X29300Y26800
X29350Y29050
X28800Y30000
X26300Y29750
X26060Y15857
X23602Y16410
X21200Y16750
X14816Y25300
X26401Y32009
X28900Y32150
T02
X23500Y14950
X23525Y19725
X24050Y20650
X26050Y20800
X26350Y20600
X27350Y22050
X28250Y22600
X25411Y22211
X26200Y25100
X26650Y26600
X23798Y27602
X21936Y28370
X20619Y28390
X20700Y27890
X20550Y27400
X20250Y27150
X20471Y26656
X21300Y26800
X21900Y26650
X21100Y27650
X20750Y29750
X19700
X18900Y28850
X18763Y28315
X18600Y27300
X18400Y26700
X18247Y25406
X17695Y25601
X17600Y24950
X16200Y24862
X17165Y23885
X18450Y23900
X19130Y23250
X19650Y23350
X20440Y23310
X20800Y24510
X21431Y24538
X22050Y24500
X23248Y24548
X19944Y24456
X19700Y24900
X19295Y25231
X18951Y25337
X20350Y25200
X17200Y28450
X15650Y22250
X16750Y19900
X28850Y19150
X29634Y19684
X23400Y31100
X13900Y28100
X12750Y26750
X12700Y26250
X14550Y26050
X13080Y23850
T03
X21805Y27735
X21576Y28370
X14800Y28950
T04
X19400Y15150
X15678Y15987
X20900Y23800
X23550Y23050
X22855Y25308
X24800Y25100
X26050Y25700
X23550Y29300
X22759Y29359
X14900Y31000
X13450Y25000
X11500Y18500
X12550Y31950
T05
X12950Y13500
X13950
X14950
X15950
X16950
X17950
X18950
X19950
X21204Y13501
X22204
X23204
X24204
X25204
X26204
X25850Y26850
Y27850
Y28850
X24850
Y27850
Y26850
X25100Y30550
X24100
X23100
X22100
X21100
X20100
X19100
X18100
X17100
X16100
X11850Y30200
Y29200
Y26150
Y25150
Y24150
Y23150
X16100Y31550
X17100
X18100
X19100
X20100
X21100
X22100
X23100
X24100
X25100
T06
X11700Y14900
X28450Y13750
X21900Y20100
X21950Y21250
X20750Y20050
X19550Y20000
X18350Y20200
X17850Y17650
X15700Y21000
X16000Y27050
X16300Y28800
X23700Y26700
X23850Y24950
X23400Y23900
X22100Y23700
X15100
X13950Y27400
X12850Y27700
X15150Y29600
X14500Y17900
M30
