G04*
G04 #@! TF.GenerationSoftware,Altium Limited,Altium Designer,22.10.1 (41)*
G04*
G04 Layer_Color=16711935*
%FSLAX25Y25*%
%MOIN*%
G70*
G04*
G04 #@! TF.SameCoordinates,AFA84DA5-00AA-44F6-A921-FAAB14C792BC*
G04*
G04*
G04 #@! TF.FilePolarity,Negative*
G04*
G01*
G75*
%ADD23R,0.03150X0.03543*%
%ADD28R,0.04331X0.03543*%
%ADD29R,0.04134X0.04134*%
%ADD36R,0.04134X0.04134*%
%ADD37R,0.06299X0.06299*%
%ADD38C,0.06299*%
%ADD39R,0.06299X0.06299*%
%ADD40C,0.03394*%
%ADD41C,0.05394*%
%ADD42C,0.02894*%
%ADD79R,0.04758X0.03985*%
%ADD80R,0.03543X0.01968*%
%ADD81R,0.04469X0.04182*%
%ADD83R,0.03543X0.04331*%
%ADD84R,0.02165X0.04134*%
%ADD85R,0.07087X0.04331*%
%ADD86R,0.17520X0.13976*%
%ADD87R,0.03740X0.03347*%
D23*
X115047Y283500D02*
D03*
X120953D02*
D03*
D28*
X174000Y205906D02*
D03*
Y200000D02*
D03*
D29*
X139000Y257000D02*
D03*
Y262906D02*
D03*
X230500Y223039D02*
D03*
Y227961D02*
D03*
X148000Y278000D02*
D03*
Y283906D02*
D03*
X149000Y265579D02*
D03*
Y270500D02*
D03*
X301000Y237000D02*
D03*
Y241921D02*
D03*
X198500Y277961D02*
D03*
Y273039D02*
D03*
X129000Y244539D02*
D03*
Y249461D02*
D03*
X300500Y258579D02*
D03*
Y263500D02*
D03*
X163000Y227500D02*
D03*
Y222579D02*
D03*
X300500Y286961D02*
D03*
Y282039D02*
D03*
X301000Y311961D02*
D03*
Y307039D02*
D03*
D36*
X201461Y285000D02*
D03*
X196539D02*
D03*
X231500Y285500D02*
D03*
X226579D02*
D03*
D37*
X248500Y288500D02*
D03*
X118500Y231500D02*
D03*
Y302000D02*
D03*
D38*
X258500Y288500D02*
D03*
X248500Y278500D02*
D03*
X258500D02*
D03*
X248500Y268500D02*
D03*
X258500D02*
D03*
X118500Y261500D02*
D03*
Y251500D02*
D03*
Y241500D02*
D03*
X195500Y200000D02*
D03*
X178500Y176500D02*
D03*
X219500Y212500D02*
D03*
X221000Y237000D02*
D03*
X151500Y296000D02*
D03*
X238500Y249500D02*
D03*
X156996Y210004D02*
D03*
X284500Y137500D02*
D03*
X207500Y200500D02*
D03*
X252036Y135012D02*
D03*
X242036D02*
D03*
X232036D02*
D03*
X222036D02*
D03*
X212036D02*
D03*
X219000Y201000D02*
D03*
X139500Y135000D02*
D03*
X149500D02*
D03*
X159500D02*
D03*
X169500D02*
D03*
X179500D02*
D03*
X189500D02*
D03*
X199500D02*
D03*
X145000Y179000D02*
D03*
X160000Y270500D02*
D03*
X139500Y274000D02*
D03*
X118500Y292000D02*
D03*
X251000Y315500D02*
D03*
X241000D02*
D03*
X231000D02*
D03*
X221000D02*
D03*
X211000D02*
D03*
X201000D02*
D03*
X191000D02*
D03*
X181000D02*
D03*
X171000D02*
D03*
X161000D02*
D03*
X251000Y305500D02*
D03*
X241000D02*
D03*
X231000D02*
D03*
X221000D02*
D03*
X211000D02*
D03*
X201000D02*
D03*
X191000D02*
D03*
X181000D02*
D03*
X171000D02*
D03*
X128500Y277000D02*
D03*
X183500Y202000D02*
D03*
X117000Y149000D02*
D03*
X237000Y267000D02*
D03*
X163000Y288000D02*
D03*
X151000Y237000D02*
D03*
X234000Y239000D02*
D03*
D39*
X262036Y135012D02*
D03*
X129500Y135000D02*
D03*
X161000Y305500D02*
D03*
D40*
X191300Y232500D02*
D03*
X189000Y288500D02*
D03*
X197000Y297500D02*
D03*
X219000Y266500D02*
D03*
X172000Y284500D02*
D03*
X205500Y274000D02*
D03*
X156500Y222500D02*
D03*
X266500Y266000D02*
D03*
X262000Y251000D02*
D03*
X296342Y196842D02*
D03*
X176951Y256010D02*
D03*
X139000Y281000D02*
D03*
X282500Y226000D02*
D03*
X189511Y253366D02*
D03*
X197000Y249000D02*
D03*
X192952Y252306D02*
D03*
X199442Y244558D02*
D03*
X208000Y245100D02*
D03*
X182473Y254060D02*
D03*
X237982Y276018D02*
D03*
X148000Y289500D02*
D03*
X184500Y239000D02*
D03*
X187632Y283150D02*
D03*
X204403Y233097D02*
D03*
X203500Y252000D02*
D03*
X235000Y149500D02*
D03*
X130800Y238500D02*
D03*
X211000Y276500D02*
D03*
X232478Y245479D02*
D03*
X215761Y283700D02*
D03*
X206193Y283895D02*
D03*
X207000Y278900D02*
D03*
X219361Y283698D02*
D03*
X207500Y297500D02*
D03*
X186000Y273000D02*
D03*
X218052Y277354D02*
D03*
X214305Y245383D02*
D03*
X213000Y268000D02*
D03*
X202500Y271500D02*
D03*
X204713Y266561D02*
D03*
X240500Y206500D02*
D03*
X235250Y197250D02*
D03*
X234000Y311000D02*
D03*
X127000Y262500D02*
D03*
X145500Y260500D02*
D03*
X220500Y245000D02*
D03*
X184000Y267000D02*
D03*
X162000Y248624D02*
D03*
X171653Y238847D02*
D03*
X288500Y191500D02*
D03*
X167500Y199000D02*
D03*
X176000Y249500D02*
D03*
X273500Y220500D02*
D03*
X254111Y222111D02*
D03*
X260500Y208000D02*
D03*
X263500Y206000D02*
D03*
X196500Y233500D02*
D03*
X127500Y267500D02*
D03*
D41*
X209000Y238000D02*
D03*
X115000Y185000D02*
D03*
X125500Y319500D02*
D03*
X134500Y250000D02*
D03*
X235500Y230500D02*
D03*
Y293000D02*
D03*
X228550Y253084D02*
D03*
X248000Y251000D02*
D03*
X156775Y159866D02*
D03*
X194000Y151500D02*
D03*
X227592Y293593D02*
D03*
X149000Y310000D02*
D03*
X260500Y257000D02*
D03*
D42*
X289000Y321500D02*
D03*
X293500Y290500D02*
D03*
X288000Y253000D02*
D03*
X293000Y268000D02*
D03*
X264007Y320088D02*
D03*
X263000Y297500D02*
D03*
X285000Y213000D02*
D03*
X184518Y249319D02*
D03*
X163000Y217000D02*
D03*
X166632Y275650D02*
D03*
X179500Y240500D02*
D03*
X176500Y285000D02*
D03*
X148157Y253002D02*
D03*
X164000Y260000D02*
D03*
X212000Y167500D02*
D03*
X260603Y158570D02*
D03*
X236019Y164101D02*
D03*
X170500Y189000D02*
D03*
X184500Y286500D02*
D03*
X274426Y238963D02*
D03*
X234700Y260000D02*
D03*
X281000Y245500D02*
D03*
X288000Y300000D02*
D03*
D79*
X202314Y292000D02*
D03*
X196000D02*
D03*
D80*
X230000Y205547D02*
D03*
Y211453D02*
D03*
X256500Y245953D02*
D03*
Y240047D02*
D03*
D81*
X171210Y296500D02*
D03*
X164790D02*
D03*
D83*
X208000Y214500D02*
D03*
X202094D02*
D03*
X170906Y254500D02*
D03*
X246453Y202000D02*
D03*
X240547D02*
D03*
X279807Y207287D02*
D03*
X285713D02*
D03*
X165000Y254500D02*
D03*
X240547Y223000D02*
D03*
X246453D02*
D03*
X240594Y211500D02*
D03*
X246500D02*
D03*
X286500Y226000D02*
D03*
X292406D02*
D03*
X286453Y200500D02*
D03*
X280547D02*
D03*
X290953Y217000D02*
D03*
X285047D02*
D03*
D84*
X173000Y214146D02*
D03*
X188000D02*
D03*
X178000Y244854D02*
D03*
X173000D02*
D03*
X183000D02*
D03*
X188000D02*
D03*
X183000Y214146D02*
D03*
X178000D02*
D03*
D85*
X268098Y250980D02*
D03*
X292902D02*
D03*
X268098Y236020D02*
D03*
X292902D02*
D03*
X268098Y272480D02*
D03*
X292902D02*
D03*
X268098Y257520D02*
D03*
X292902D02*
D03*
X293402Y279520D02*
D03*
X268598D02*
D03*
X293402Y294480D02*
D03*
X268598D02*
D03*
X294803Y303539D02*
D03*
X270000D02*
D03*
X294803Y318500D02*
D03*
X270000D02*
D03*
D86*
X180500Y229500D02*
D03*
D87*
X247500Y238000D02*
D03*
Y232882D02*
D03*
M02*
