G04*
G04 #@! TF.GenerationSoftware,Altium Limited,Altium Designer,22.10.1 (41)*
G04*
G04 Layer_Physical_Order=1*
G04 Layer_Color=255*
%FSLAX25Y25*%
%MOIN*%
G70*
G04*
G04 #@! TF.SameCoordinates,AFA84DA5-00AA-44F6-A921-FAAB14C792BC*
G04*
G04*
G04 #@! TF.FilePolarity,Positive*
G04*
G01*
G75*
%ADD13C,0.01000*%
%ADD23R,0.03150X0.03543*%
%ADD27R,0.03985X0.04758*%
%ADD31R,0.02953X0.03937*%
%ADD43R,0.05315X0.06102*%
%ADD44R,0.03937X0.04724*%
%ADD45R,0.05315X0.07480*%
%ADD46R,0.07087X0.04606*%
%ADD47R,0.04331X0.02953*%
%ADD48R,0.04331X0.03347*%
%ADD49R,0.05807X0.01181*%
%ADD50R,0.01181X0.05807*%
%ADD51R,0.07610X0.11929*%
%ADD52R,0.02284X0.06811*%
%ADD53R,0.02992X0.05906*%
%ADD54R,0.03937X0.03150*%
%ADD55R,0.03740X0.03740*%
%ADD56R,0.02953X0.03347*%
%ADD57R,0.05118X0.05709*%
%ADD58R,0.05118X0.04331*%
%ADD59R,0.03937X0.06693*%
%ADD60R,0.02362X0.02362*%
%ADD61R,0.03740X0.03740*%
%ADD62C,0.01200*%
%ADD63C,0.00700*%
%ADD64C,0.02000*%
%ADD65C,0.01500*%
%ADD66C,0.02500*%
%ADD67C,0.03000*%
%ADD68C,0.01968*%
%ADD69R,0.05906X0.05906*%
%ADD70C,0.05906*%
%ADD71R,0.05906X0.05906*%
%ADD72C,0.03000*%
%ADD73C,0.05000*%
%ADD74C,0.02500*%
D13*
X224878Y229878D02*
X225418Y230381D01*
X190500Y238000D02*
X191300Y237200D01*
Y232500D02*
Y237200D01*
X189000Y288500D02*
X191083Y286417D01*
X193725D02*
X193815Y286327D01*
X189000Y288500D02*
X189000D01*
X191083Y286417D02*
X193725D01*
X193815Y286327D02*
X196128D01*
X199791Y297117D02*
X201551Y295357D01*
X197383Y297117D02*
X199791D01*
X197000Y297500D02*
X197383Y297117D01*
X201551Y292276D02*
Y295357D01*
X186848Y146152D02*
X187079D01*
X112947Y176353D02*
X113094Y176500D01*
X201551Y292276D02*
X201642Y292185D01*
X219268Y258906D02*
Y266232D01*
X199621Y272547D02*
X201174Y274100D01*
X230000Y138827D02*
Y144539D01*
X178500Y262201D02*
X178799Y262500D01*
X188561Y135939D02*
X189500Y135000D01*
X115000Y183918D02*
Y185000D01*
X136000Y281339D02*
X136586Y280753D01*
X178799Y262500D02*
X180858Y264559D01*
X201174Y274100D02*
X205400D01*
X230000Y138827D02*
X232000Y136827D01*
X234000Y285500D02*
Y286500D01*
X219000Y266500D02*
X219268Y266232D01*
X232000Y135500D02*
Y136827D01*
X193815Y272547D02*
X199621D01*
X232949Y284449D02*
X234000Y285500D01*
X188561Y135939D02*
Y144669D01*
X187079Y146152D02*
X188561Y144669D01*
X171929Y280000D02*
X171972Y280043D01*
X119827Y292000D02*
X121093Y293266D01*
X118500Y292000D02*
X119827D01*
X219268Y258906D02*
X219358Y258815D01*
X171850Y290500D02*
X171972Y290378D01*
X227185Y284358D02*
X227276Y284449D01*
X205400Y274100D02*
X205500Y274000D01*
X235500Y288000D02*
Y293000D01*
X234000Y286500D02*
X235500Y288000D01*
X115000Y193079D02*
X115520Y193598D01*
X227276Y284449D02*
X232949D01*
X268547Y221776D02*
X274665Y215658D01*
X254311Y221776D02*
X268547D01*
X254044Y222044D02*
X254311Y221776D01*
X216889Y219111D02*
X251111D01*
X254111Y222111D01*
X201664Y233097D02*
X204403D01*
X200903Y233858D02*
X201664Y233097D01*
X196858Y233858D02*
X200903D01*
X205000Y227000D02*
Y231511D01*
Y227000D02*
X219500Y212500D01*
X204786Y231725D02*
X205000Y231511D01*
X204786Y231725D02*
Y232714D01*
X204403Y233097D02*
X204786Y232714D01*
X197000Y249000D02*
Y249541D01*
X192922Y249463D02*
Y252276D01*
X198356Y250898D02*
Y252685D01*
X192922Y252276D02*
X192952Y252306D01*
X197000Y249541D02*
X198356Y250898D01*
X196847Y254194D02*
X198356Y252685D01*
X191992Y248533D02*
X192922Y249463D01*
X182473Y254060D02*
X182783D01*
X183483Y254760D01*
X234482Y276492D02*
X234957Y276018D01*
X227193Y276492D02*
X234482D01*
X234957Y276018D02*
X237982D01*
X166632Y271400D02*
Y275650D01*
X274041Y220500D02*
X275726Y218815D01*
X300492D01*
X184594Y239094D02*
Y242000D01*
X184500Y239000D02*
X184594Y239094D01*
X185000Y242406D02*
Y244771D01*
X184594Y242000D02*
X185000Y242406D01*
X179500Y250271D02*
X185000Y244771D01*
X179500Y135000D02*
Y136039D01*
X181500Y138039D02*
Y145500D01*
X179500Y136039D02*
X181500Y138039D01*
X188933Y282390D02*
X193815D01*
X187632Y283150D02*
X188173D01*
X148233Y253002D02*
X166632Y271400D01*
X148157Y253002D02*
X148233D01*
X188173Y283150D02*
X188933Y282390D01*
X191992Y245806D02*
Y248533D01*
X238674Y153326D02*
X240032Y151969D01*
Y151575D02*
X241106Y150500D01*
X196847Y255989D02*
X199673Y258815D01*
X240032Y151575D02*
Y151969D01*
X241106Y150500D02*
X241500D01*
X238674Y153326D02*
Y180326D01*
X219000Y200000D02*
X238674Y180326D01*
X196847Y254194D02*
Y255989D01*
X219000Y200000D02*
Y201000D01*
X203610Y251931D02*
Y258815D01*
X214531Y274516D02*
X227185D01*
Y276484D02*
X227193Y276492D01*
X221106Y268610D02*
X227185D01*
X211000Y276500D02*
Y281640D01*
X196128Y286327D02*
X199673Y289872D01*
X211415Y271400D02*
X214531Y274516D01*
X213383Y268383D02*
X215690D01*
X201642Y258815D02*
Y264142D01*
X202349Y264849D02*
X202459D01*
X207524Y292209D02*
Y297476D01*
X183483Y254760D02*
Y256983D01*
X201038Y270579D02*
X201959Y271500D01*
X202459Y264849D02*
X204172Y266561D01*
X201959Y271500D02*
X202500D01*
X203092Y268900D02*
X203577D01*
X216500Y269193D02*
X220524D01*
X207500Y297500D02*
X207524Y297476D01*
X203577Y268900D02*
X206077Y271400D01*
X220524Y269193D02*
X221106Y268610D01*
X209516Y283124D02*
X211000Y281640D01*
X213000Y268000D02*
X213383Y268383D01*
X201642Y264142D02*
X202349Y264849D01*
X183483Y256983D02*
X189483Y262983D01*
X197174D02*
X203092Y268900D01*
X215690Y268383D02*
X216500Y269193D01*
X214305Y253129D02*
X215421Y254245D01*
X189483Y262983D02*
X197174D01*
X215421Y254245D02*
Y258815D01*
X193815Y270579D02*
X201038D01*
X209516Y283124D02*
Y292185D01*
X199673Y289872D02*
Y292185D01*
X204172Y266561D02*
X204713D01*
X207524Y292209D02*
X207547Y292185D01*
X206077Y271400D02*
X211415D01*
X214305Y245383D02*
Y253129D01*
X190500Y244314D02*
X191992Y245806D01*
X179500Y250271D02*
Y255500D01*
X188673Y264673D01*
X193815D01*
X159500Y135000D02*
Y157500D01*
X178586Y176586D01*
X209800Y248200D02*
Y252664D01*
Y248200D02*
X211705Y246295D01*
Y244306D02*
Y246295D01*
Y244306D02*
X215574Y240438D01*
X118500Y241500D02*
X118899D01*
X130000Y232906D02*
X130394D01*
X130500Y164500D02*
X145437Y179437D01*
X130500Y136000D02*
Y164500D01*
X129500Y135000D02*
X130500Y136000D01*
X220117Y245383D02*
Y247568D01*
X216882Y250803D02*
X220117Y247568D01*
Y245383D02*
X220500Y245000D01*
X216882Y250803D02*
Y251000D01*
X214500Y221500D02*
X216500D01*
X225446Y230441D02*
X225446Y230446D01*
X216500Y221500D02*
X224878Y229878D01*
X225418Y230381D02*
X225446Y230441D01*
X225446Y230446D02*
X234000Y239000D01*
X214500Y221500D02*
Y236376D01*
Y221500D02*
X216889Y219111D01*
X214500Y236376D02*
X215574Y237449D01*
X288658Y191658D02*
X299319D01*
X288500Y191500D02*
X288658Y191658D01*
X299319D02*
X300492Y192831D01*
X219500Y212000D02*
X252823D01*
X196500Y233500D02*
X196858Y233858D01*
X209516Y252948D02*
X209800Y252664D01*
X209516Y252948D02*
Y258815D01*
X215574Y237449D02*
Y240438D01*
X217299Y251417D02*
Y258724D01*
X216882Y251000D02*
X217299Y251417D01*
Y258724D02*
X217390Y258815D01*
X273500Y220500D02*
X274041D01*
X299319Y215658D02*
X300492Y214484D01*
X274665Y215658D02*
X299319D01*
X262158Y202665D02*
X299319D01*
X300315Y206000D02*
X300492Y205823D01*
X260743Y208000D02*
X262743Y210000D01*
X252823Y212000D02*
X262158Y202665D01*
X263500Y206000D02*
X300315D01*
X260500Y208000D02*
X260743D01*
X262743Y210000D02*
X300339D01*
X299319Y202665D02*
X300492Y201492D01*
X300339Y210000D02*
X300492Y210154D01*
X116500Y151000D02*
X117133Y150367D01*
X262000Y135500D02*
Y145500D01*
X242000Y135500D02*
Y144094D01*
X241500Y144594D02*
X242000Y144094D01*
X222000Y135500D02*
X222031Y135531D01*
X223106Y146000D02*
X223500D01*
X222031Y144925D02*
X223106Y146000D01*
X222031Y135531D02*
Y144925D01*
X127500Y267500D02*
X133000D01*
X139500Y274000D01*
X149500Y136827D02*
X151500Y138827D01*
Y146547D01*
X149500Y135500D02*
Y136827D01*
X139500Y135500D02*
Y146500D01*
X178150Y290205D02*
Y290500D01*
D23*
X131595Y317500D02*
D03*
X137500D02*
D03*
X141905Y284500D02*
D03*
X136000D02*
D03*
D27*
X190500Y238000D02*
D03*
Y244314D02*
D03*
D31*
X119000Y176500D02*
D03*
X113094D02*
D03*
D43*
X300000Y228500D02*
D03*
D44*
X276280Y229189D02*
D03*
X261713D02*
D03*
D45*
X257874Y215410D02*
D03*
Y191906D02*
D03*
D46*
X299114Y183933D02*
D03*
D47*
X300492Y188697D02*
D03*
D48*
Y192831D02*
D03*
Y197162D02*
D03*
Y201492D02*
D03*
Y205823D02*
D03*
Y210154D02*
D03*
Y214484D02*
D03*
Y218815D02*
D03*
D49*
X193815Y286327D02*
D03*
Y284358D02*
D03*
Y282390D02*
D03*
Y280421D02*
D03*
Y278453D02*
D03*
Y276484D02*
D03*
Y274516D02*
D03*
Y272547D02*
D03*
Y270579D02*
D03*
Y268610D02*
D03*
Y266642D02*
D03*
Y264673D02*
D03*
X227185D02*
D03*
Y266642D02*
D03*
Y268610D02*
D03*
Y270579D02*
D03*
Y272547D02*
D03*
Y274516D02*
D03*
Y276484D02*
D03*
Y278453D02*
D03*
Y280421D02*
D03*
Y282390D02*
D03*
Y284358D02*
D03*
Y286327D02*
D03*
D50*
X199673Y258815D02*
D03*
X201642D02*
D03*
X203610D02*
D03*
X205579D02*
D03*
X207547D02*
D03*
X209516D02*
D03*
X211484D02*
D03*
X213453D02*
D03*
X215421D02*
D03*
X217390D02*
D03*
X219358D02*
D03*
X221327D02*
D03*
Y292185D02*
D03*
X219358D02*
D03*
X217390D02*
D03*
X215421D02*
D03*
X213453D02*
D03*
X211484D02*
D03*
X209516D02*
D03*
X207547D02*
D03*
X205579D02*
D03*
X203610D02*
D03*
X201642D02*
D03*
X199673D02*
D03*
D51*
X134500Y306500D02*
D03*
D52*
X140405Y298035D02*
D03*
X128595D02*
D03*
D53*
X134500Y297583D02*
D03*
D54*
X222500Y151953D02*
D03*
Y146047D02*
D03*
X130000Y227000D02*
D03*
Y232906D02*
D03*
X262000Y145500D02*
D03*
Y151406D02*
D03*
X241500Y144594D02*
D03*
Y150500D02*
D03*
X151500Y146547D02*
D03*
Y152453D02*
D03*
X140000Y151906D02*
D03*
Y146000D02*
D03*
X181500Y151453D02*
D03*
Y145547D02*
D03*
D55*
X230000Y149461D02*
D03*
Y144539D02*
D03*
X187500Y146039D02*
D03*
Y150961D02*
D03*
X203500Y239000D02*
D03*
Y243921D02*
D03*
D56*
X216882Y251000D02*
D03*
X222000D02*
D03*
D57*
X172500Y262500D02*
D03*
X178799D02*
D03*
X178150Y290500D02*
D03*
X171850D02*
D03*
D58*
X171972Y272957D02*
D03*
X181028D02*
D03*
Y280043D02*
D03*
X171972D02*
D03*
D59*
X130480Y193598D02*
D03*
Y218402D02*
D03*
X115520Y193598D02*
D03*
Y218402D02*
D03*
D60*
X116500Y166500D02*
D03*
Y160988D02*
D03*
D61*
X124079Y185000D02*
D03*
X129000D02*
D03*
D62*
X179984Y276484D02*
X193815D01*
X176822Y276322D02*
X179822D01*
X179984Y276484D01*
X173932Y274522D02*
X175022D01*
X176822Y276322D01*
X172500Y272957D02*
Y273091D01*
X173932Y274522D01*
X171972Y272957D02*
X172500D01*
X181028Y280043D02*
X186499D01*
X188090Y278453D02*
X193815D01*
X186499Y280043D02*
X188090Y278453D01*
X181028Y280043D02*
Y287327D01*
X178150Y290205D02*
X181028Y287327D01*
X172500Y262500D02*
Y272429D01*
D63*
X184500Y286500D02*
X187053D01*
X187503Y286050D01*
X188197D02*
X189888Y284358D01*
X187503Y286050D02*
X188197D01*
X189888Y284358D02*
X193815D01*
X296342Y196842D02*
X300173D01*
X300492Y197162D01*
X279500Y291500D02*
X288000Y300000D01*
X279500Y247253D02*
Y291500D01*
Y247253D02*
X281000Y245753D01*
X194550Y250227D02*
X195402Y251079D01*
Y253320D01*
X191523Y254755D02*
X193966D01*
X190134Y253366D02*
X191523Y254755D01*
X193966D02*
X195402Y253320D01*
X194550Y247985D02*
X195985Y246550D01*
X198015D01*
X194550Y247985D02*
Y250227D01*
X198015Y246550D02*
X198700Y247235D01*
X189511Y253366D02*
X190134D01*
X198700Y247235D02*
X204800D01*
X207050Y249485D01*
X208000Y245100D02*
Y248388D01*
X208350Y248738D02*
Y252063D01*
X208000Y248388D02*
X208350Y248738D01*
X232478Y245479D02*
Y268154D01*
X230294Y270338D02*
X232478Y268154D01*
X205539Y286617D02*
Y292146D01*
X206124Y283964D02*
X206193Y283895D01*
X206124Y283964D02*
Y286033D01*
X205539Y286617D02*
X206124Y286033D01*
X151500Y152453D02*
Y155754D01*
X155612Y159866D01*
X184500Y238378D02*
Y239000D01*
X183500Y237378D02*
X184500Y238378D01*
X183500Y202250D02*
Y237378D01*
X155612Y159866D02*
X156775D01*
X168076Y229076D02*
X179500Y240500D01*
X156996Y216496D02*
X168076Y227576D01*
Y229076D01*
X193575Y278693D02*
X193815Y278453D01*
X205579Y253386D02*
X206224Y252741D01*
X205579Y253386D02*
Y258815D01*
X206224Y252351D02*
X207050Y251524D01*
X207524Y252889D02*
X208350Y252063D01*
X207524Y252889D02*
Y258791D01*
X206224Y252351D02*
Y252741D01*
X164000Y250089D02*
X164450Y249639D01*
X164000Y250089D02*
Y260000D01*
X164450Y226308D02*
Y249639D01*
X157105Y248624D02*
X161876D01*
X130480Y227000D02*
X135481D01*
X157105Y248624D01*
X186575Y273000D02*
X188090Y274516D01*
X217390Y285669D02*
X219361Y283698D01*
X203610Y280012D02*
X204487Y279135D01*
X205539Y292146D02*
X205579Y292185D01*
X206765Y279135D02*
X207000Y278900D01*
X207524Y258791D02*
X207547Y258815D01*
X188090Y274516D02*
X198121D01*
X215617Y283556D02*
X215761Y283700D01*
X211484Y284516D02*
Y292185D01*
X207050Y249485D02*
Y251524D01*
X215319Y277354D02*
X218052D01*
X186000Y273000D02*
X186575D01*
X217390Y294437D02*
X217445Y294492D01*
X198121Y274516D02*
X200056Y276450D01*
X203610Y280012D02*
Y292185D01*
X200056Y276450D02*
X207585D01*
X217390Y285669D02*
Y294437D01*
X227185Y270579D02*
X227426Y270338D01*
X211484Y284516D02*
X212444Y283556D01*
X215617D01*
X204487Y279135D02*
X206765D01*
X212015Y274050D02*
X215319Y277354D01*
X227426Y270338D02*
X230294D01*
X207585Y276450D02*
X209985Y274050D01*
X212015D01*
X249500Y299000D02*
X258500Y290000D01*
X259500Y289000D01*
X235500Y197000D02*
X265041D01*
X235250Y197250D02*
X235500Y197000D01*
X265041D02*
X273699Y188341D01*
X219646Y297646D02*
X225300Y303300D01*
Y308200D01*
X221996Y311504D02*
X225300Y308200D01*
X221374Y294500D02*
Y295874D01*
X224500Y299000D01*
X249500D01*
X215181Y292426D02*
Y295319D01*
Y292426D02*
X215421Y292185D01*
X194903Y301597D02*
X208903D01*
X215181Y295319D01*
X191000Y305500D02*
X194903Y301597D01*
X208210Y300297D02*
X213212Y295294D01*
X170683Y300297D02*
X208210D01*
X231000Y314091D02*
Y315500D01*
Y314091D02*
X232380Y312711D01*
Y312620D02*
Y312711D01*
Y312620D02*
X234000Y311000D01*
X141905Y290595D02*
X143000Y289500D01*
X161876Y248624D02*
X162000Y248500D01*
X130480Y218402D02*
Y227000D01*
X130000D02*
X130480D01*
X153093Y214951D02*
X164450Y226308D01*
X156996Y210004D02*
Y216496D01*
X260603Y158570D02*
X262000Y157173D01*
Y151406D02*
Y157173D01*
X248500Y245500D02*
X281000D01*
X189981Y201500D02*
X196000D01*
X212000Y167500D02*
X232620D01*
X139606Y151906D02*
X140000D01*
X151597Y163109D02*
Y163117D01*
X189981Y201500D01*
X140394Y151906D02*
X151597Y163109D01*
X232620Y167500D02*
X236019Y164101D01*
X153093Y206407D02*
Y214951D01*
Y206407D02*
X170500Y189000D01*
X151500Y306000D02*
X161000Y315500D01*
X151500Y296000D02*
Y306000D01*
X241772Y252228D02*
X248500Y245500D01*
X241772Y252228D02*
Y252928D01*
X234700Y260000D02*
X241772Y252928D01*
X165690Y305291D02*
X170683Y300297D01*
X165690Y305291D02*
Y310810D01*
X240551Y290000D02*
X248500D01*
X227185Y282390D02*
X232940D01*
X240551Y290000D01*
X162000Y248500D02*
Y248624D01*
X213212Y292426D02*
Y295294D01*
Y292426D02*
X213453Y292185D01*
X140000Y151906D02*
X140394D01*
X231000Y305500D02*
X241000D01*
X230535D02*
X231000D01*
X191000Y315500D02*
X201000Y305500D01*
X171000D02*
Y315500D01*
X201000D02*
X211000D01*
X131000Y194118D02*
Y217882D01*
X273699Y188341D02*
X300136D01*
X300492Y188697D01*
X130480Y218402D02*
X131000Y217882D01*
X129000Y185000D02*
Y192118D01*
X130480Y193598D01*
X131000Y194118D01*
X171000Y305500D02*
X181000D01*
X161000Y315500D02*
X165690Y310810D01*
X219405Y294500D02*
X219646Y294741D01*
Y297646D01*
X211000Y305500D02*
X221000D01*
X201000D02*
X211000D01*
X241000D02*
X251000Y315500D01*
X191000D02*
X201000D01*
X181000D02*
X191000D01*
X171000D02*
X181000D01*
X221996Y311504D02*
Y314504D01*
X221000Y315500D02*
X221996Y314504D01*
D64*
X171972Y284500D02*
Y290378D01*
X171986Y284486D02*
X172000Y284500D01*
X208500Y238500D02*
X209000Y238000D01*
X115000Y185000D02*
Y193079D01*
X136000Y281339D02*
Y284500D01*
X128453Y295630D02*
X128595Y295772D01*
X125500Y319500D02*
X126057D01*
X178000Y265000D02*
X181028Y268028D01*
X128057Y317500D02*
X131595D01*
X115520Y218402D02*
Y228520D01*
X138729Y281000D02*
X139000D01*
X171986Y280085D02*
X172000Y280071D01*
X204000Y238500D02*
X208500D01*
X176951Y256492D02*
X178500Y258041D01*
X115520Y228520D02*
X118500Y231500D01*
X178500Y258041D02*
Y262201D01*
X113094Y176500D02*
Y182012D01*
X125266Y293266D02*
X127630Y295630D01*
X128453D01*
X181028Y268028D02*
Y272957D01*
X113094Y182012D02*
X115000Y183918D01*
Y185000D02*
X124079D01*
X136586Y280753D02*
X138482D01*
X203500Y239000D02*
X204000Y238500D01*
X138482Y280753D02*
X138729Y281000D01*
X128595Y295772D02*
Y298035D01*
X126057Y319500D02*
X128057Y317500D01*
X176951Y256010D02*
Y256492D01*
X121093Y293266D02*
X125266D01*
X171986Y280085D02*
Y284486D01*
X171929Y280000D02*
X172000Y280071D01*
X227657Y151953D02*
X230130Y149480D01*
X181246Y151230D02*
X193730D01*
X190500Y244314D02*
X190696Y244118D01*
X225993Y251000D02*
X228077Y253084D01*
X228550D01*
X222000Y251000D02*
X225993D01*
X193730Y151230D02*
X194000Y151500D01*
X234980Y149480D02*
X235000Y149500D01*
X230130Y149480D02*
X234980D01*
X222500Y151953D02*
X227657D01*
X130609Y238309D02*
X130800Y238500D01*
X130609Y233121D02*
Y238309D01*
X130394Y232906D02*
X130609Y233121D01*
X140405Y292094D02*
Y298035D01*
Y292094D02*
X141905Y290595D01*
Y284500D02*
Y290595D01*
X116500Y151000D02*
Y160988D01*
D65*
X202512Y244403D02*
Y244713D01*
X199442Y244558D02*
X199729Y244271D01*
X202380D02*
X202512Y244403D01*
X199729Y244271D02*
X202380D01*
X202512Y244713D02*
X203304Y243921D01*
X116500Y166500D02*
Y173508D01*
X119000Y176008D01*
Y176500D01*
D66*
X226490Y258658D02*
X228072Y257076D01*
Y253562D02*
Y257076D01*
Y253562D02*
X228550Y253084D01*
X221986Y258658D02*
X226490D01*
X227592Y286986D02*
Y293593D01*
X134500Y296667D02*
Y309945D01*
X121667Y304000D02*
X134945D01*
X134306Y297389D02*
X134500Y297583D01*
X120203Y303703D02*
X121370D01*
X121667Y304000D01*
X137500Y311660D02*
Y317500D01*
X134500Y308660D02*
X137500Y311660D01*
X134500Y306500D02*
Y308660D01*
X149000Y309831D02*
Y310000D01*
X160049Y304549D02*
X161000Y305500D01*
D67*
X248500Y267790D02*
Y268500D01*
D68*
X143000Y289500D02*
X148000D01*
D69*
X248500Y288500D02*
D03*
X118500Y231500D02*
D03*
Y302000D02*
D03*
D70*
X258500Y288500D02*
D03*
X248500Y278500D02*
D03*
X258500D02*
D03*
X248500Y268500D02*
D03*
X258500D02*
D03*
X118500Y261500D02*
D03*
Y251500D02*
D03*
Y241500D02*
D03*
X195500Y200000D02*
D03*
X178500Y176500D02*
D03*
X219500Y212500D02*
D03*
X221000Y237000D02*
D03*
X151500Y296000D02*
D03*
X238500Y249500D02*
D03*
X156996Y210004D02*
D03*
X284500Y137500D02*
D03*
X207500Y200500D02*
D03*
X252036Y135012D02*
D03*
X242036D02*
D03*
X232036D02*
D03*
X222036D02*
D03*
X212036D02*
D03*
X219000Y201000D02*
D03*
X139500Y135000D02*
D03*
X149500D02*
D03*
X159500D02*
D03*
X169500D02*
D03*
X179500D02*
D03*
X189500D02*
D03*
X199500D02*
D03*
X145000Y179000D02*
D03*
X160000Y270500D02*
D03*
X139500Y274000D02*
D03*
X118500Y292000D02*
D03*
X251000Y315500D02*
D03*
X241000D02*
D03*
X231000D02*
D03*
X221000D02*
D03*
X211000D02*
D03*
X201000D02*
D03*
X191000D02*
D03*
X181000D02*
D03*
X171000D02*
D03*
X161000D02*
D03*
X251000Y305500D02*
D03*
X241000D02*
D03*
X231000D02*
D03*
X221000D02*
D03*
X211000D02*
D03*
X201000D02*
D03*
X191000D02*
D03*
X181000D02*
D03*
X171000D02*
D03*
X128500Y277000D02*
D03*
X183500Y202000D02*
D03*
X117000Y149000D02*
D03*
X237000Y267000D02*
D03*
X163000Y288000D02*
D03*
X151000Y237000D02*
D03*
X234000Y239000D02*
D03*
D71*
X262036Y135012D02*
D03*
X129500Y135000D02*
D03*
X161000Y305500D02*
D03*
D72*
X191300Y232500D02*
D03*
X189000Y288500D02*
D03*
X197000Y297500D02*
D03*
X219000Y266500D02*
D03*
X172000Y284500D02*
D03*
X205500Y274000D02*
D03*
X156500Y222500D02*
D03*
X266500Y266000D02*
D03*
X262000Y251000D02*
D03*
X296342Y196842D02*
D03*
X176951Y256010D02*
D03*
X139000Y281000D02*
D03*
X282500Y226000D02*
D03*
X189511Y253366D02*
D03*
X197000Y249000D02*
D03*
X192952Y252306D02*
D03*
X199442Y244558D02*
D03*
X208000Y245100D02*
D03*
X182473Y254060D02*
D03*
X237982Y276018D02*
D03*
X148000Y289500D02*
D03*
X184500Y239000D02*
D03*
X187632Y283150D02*
D03*
X204403Y233097D02*
D03*
X203500Y252000D02*
D03*
X235000Y149500D02*
D03*
X130800Y238500D02*
D03*
X211000Y276500D02*
D03*
X232478Y245479D02*
D03*
X215761Y283700D02*
D03*
X206193Y283895D02*
D03*
X207000Y278900D02*
D03*
X219361Y283698D02*
D03*
X207500Y297500D02*
D03*
X186000Y273000D02*
D03*
X218052Y277354D02*
D03*
X214305Y245383D02*
D03*
X213000Y268000D02*
D03*
X202500Y271500D02*
D03*
X204713Y266561D02*
D03*
X240500Y206500D02*
D03*
X235250Y197250D02*
D03*
X234000Y311000D02*
D03*
X127000Y262500D02*
D03*
X145500Y260500D02*
D03*
X220500Y245000D02*
D03*
X184000Y267000D02*
D03*
X162000Y248624D02*
D03*
X171653Y238847D02*
D03*
X288500Y191500D02*
D03*
X167500Y199000D02*
D03*
X176000Y249500D02*
D03*
X273500Y220500D02*
D03*
X254111Y222111D02*
D03*
X260500Y208000D02*
D03*
X263500Y206000D02*
D03*
X196500Y233500D02*
D03*
X127500Y267500D02*
D03*
D73*
X209000Y238000D02*
D03*
X115000Y185000D02*
D03*
X125500Y319500D02*
D03*
X134500Y250000D02*
D03*
X235500Y230500D02*
D03*
Y293000D02*
D03*
X228550Y253084D02*
D03*
X248000Y251000D02*
D03*
X156775Y159866D02*
D03*
X194000Y151500D02*
D03*
X227592Y293593D02*
D03*
X149000Y310000D02*
D03*
X260500Y257000D02*
D03*
D74*
X289000Y321500D02*
D03*
X293500Y290500D02*
D03*
X288000Y253000D02*
D03*
X293000Y268000D02*
D03*
X264007Y320088D02*
D03*
X263000Y297500D02*
D03*
X285000Y213000D02*
D03*
X184518Y249319D02*
D03*
X163000Y217000D02*
D03*
X166632Y275650D02*
D03*
X179500Y240500D02*
D03*
X176500Y285000D02*
D03*
X148157Y253002D02*
D03*
X164000Y260000D02*
D03*
X212000Y167500D02*
D03*
X260603Y158570D02*
D03*
X236019Y164101D02*
D03*
X170500Y189000D02*
D03*
X184500Y286500D02*
D03*
X274426Y238963D02*
D03*
X234700Y260000D02*
D03*
X281000Y245500D02*
D03*
X288000Y300000D02*
D03*
M02*
